<svg width="161" height="179" viewBox="0 0 161 179" fill="none" xmlns="http://www.w3.org/2000/svg">
<g id="Group">
<path id="Vector" d="M69.0362 94.9474C95.244 94.9474 116.502 73.6818 116.502 47.5001C116.502 21.2695 95.248 0 69.0362 0C42.8095 0 21.5811 21.2734 21.5811 47.5001C21.5811 73.6818 42.8056 94.9474 69.0362 94.9474Z" fill="#0452A1"/>
<path id="Vector_2" d="M129.028 107.975C126.522 102.607 123.364 97.2077 119.331 92.0561C117.161 89.2951 113.203 86.2644 109.376 84.1885C99.4534 95.3074 85.0719 102.349 69.0361 102.349C53.0121 102.349 38.634 95.3074 28.7233 84.2143C24.9821 86.3396 21.1283 89.3702 19.0296 92.1234C12.2203 101.009 1.71097 118.231 0.03485 141.438C-0.316884 146.336 2.01418 153.815 6.10705 156.669C13.8741 162.106 30.6275 169.06 65.5117 169.06C77.5888 169.06 87.7652 168.316 96.3665 167.156C92.8945 161.301 90.8631 154.492 90.8631 147.204C90.8592 125.919 107.886 108.574 129.028 107.975Z" fill="#0452A1"/>
<path id="Vector_3" d="M129.028 115.397C111.466 115.397 97.2273 129.637 97.2273 147.199C97.2273 164.76 111.467 178.999 129.028 178.999C146.59 178.999 160.83 164.76 160.83 147.199C160.83 129.637 146.594 115.397 129.028 115.397ZM144.727 153.05H132.459V165.322C132.459 167.353 130.809 168.999 128.778 168.999C126.747 168.999 125.096 167.353 125.096 165.322V153.054L112.829 153.05C110.794 153.054 109.148 151.408 109.151 149.376C109.151 147.341 110.797 145.695 112.829 145.695H125.1V133.427C125.1 131.396 126.747 129.75 128.778 129.753C130.806 129.753 132.455 131.395 132.459 133.431V145.695H144.723C146.755 145.695 148.401 147.341 148.405 149.376C148.405 151.404 146.758 153.05 144.727 153.05Z" fill="#0452A1"/>
</g>
</svg>
