<svg width="64" height="64" viewBox="0 0 64 64" fill="none" xmlns="http://www.w3.org/2000/svg">
<g id="add-filled-svgrepo-com 1" clip-path="url(#clip0_419_1706)">
<g id="SVGRepo_iconCarrier">
<path id="Vector" d="M32 4C24.6017 4.08951 17.5317 7.06824 12.3 12.3C7.06824 17.5317 4.08951 24.6017 4 32C4.08951 39.3983 7.06824 46.4683 12.3 51.7C17.5317 56.9318 24.6017 59.9105 32 60C39.3983 59.9105 46.4683 56.9318 51.7 51.7C56.9318 46.4683 59.9105 39.3983 60 32C59.9105 24.6017 56.9318 17.5317 51.7 12.3C46.4683 7.06824 39.3983 4.08951 32 4ZM48 34H34V48H30V34H16V30H30V16H34V30H48V34Z" fill="#0452A1"/>
</g>
</g>
<defs>
<clipPath id="clip0_419_1706">
<rect width="64" height="64" fill="white"/>
</clipPath>
</defs>
</svg>
