<svg width="28" height="28" viewBox="0 0 28 28" fill="none" xmlns="http://www.w3.org/2000/svg">
<g id="auto-renewal-2-circle-fill-svgrepo-com 1">
<g id="SVGRepo_iconCarrier">
<path id="Vector" fill-rule="evenodd" clip-rule="evenodd" d="M25.25 14C25.25 20.2132 20.2132 25.25 14 25.25C7.78679 25.25 2.75 20.2132 2.75 14C2.75 7.78679 7.78679 2.75 14 2.75C20.2132 2.75 25.25 7.78679 25.25 14ZM9.70455 14.1023C9.70455 11.7326 11.6303 9.80682 14 9.80682C14.723 9.80682 15.4103 9.9858 16.0045 10.308L17.0498 9.26273C16.1692 8.70432 15.124 8.375 14 8.375C10.8357 8.375 8.27273 10.938 8.27273 14.1023H6.125L8.98863 16.966L11.8523 14.1023H9.70455ZM19.0113 11.2386L16.1477 14.1023H18.2955C18.2955 16.472 16.3697 18.3977 14 18.3977C13.277 18.3977 12.5897 18.2188 11.9955 17.8966L10.9502 18.9418C11.8308 19.5002 12.876 19.8295 14 19.8295C17.1643 19.8295 19.7273 17.2666 19.7273 14.1023H21.875L19.0113 11.2386Z" fill="black"/>
</g>
</g>
</svg>
