<svg width="50" height="50" viewBox="0 0 50 50" fill="none" xmlns="http://www.w3.org/2000/svg">
<g id="broken-heart-1-svgrepo-com 1">
<g id="SVGRepo_iconCarrier">
<g id="Group">
<path id="Vector" d="M22.1681 9.90948C20.1846 7.16329 17.28 4.52931 12.5583 4.4422C5.97754 4.30792 0 9.09669 0 19.6676C0 30.0882 8.96025 37.4819 14.4867 41.2474C17.3702 43.2218 20.8361 44.7743 22.141 45.3296L25.5849 30.2466L18.3495 22.2355L22.1681 9.90948ZM10.9297 30.0701C10.2512 30.5532 9.31201 30.3959 8.82803 29.7193C7.59814 27.9975 6.68516 26.045 6.32031 23.8852C6.12686 22.7295 6.02461 21.6561 6.02461 20.6559C6.02461 19.6506 6.12783 18.7165 6.35137 17.8556C6.56191 17.0518 7.38574 16.5696 8.18955 16.7792C8.99443 16.9898 9.47647 17.8136 9.26592 18.6173C9.11953 19.1755 9.03643 19.8561 9.03643 20.6559C9.03643 21.4517 9.11758 22.3617 9.29092 23.384C9.56758 25.0207 10.2621 26.5411 11.2804 27.9693C11.7636 28.647 11.6062 29.587 10.9297 30.0701ZM12.9693 12.0574C12.4953 12.3441 12.1475 12.6467 11.8899 12.9645C11.3646 13.6089 10.4165 13.7061 9.77002 13.181C9.12666 12.6558 9.02939 11.7077 9.55459 11.0622C10.0587 10.4429 10.6871 9.91759 11.4098 9.48067C12.1224 9.04962 13.0484 9.27813 13.4773 9.98985C13.9085 10.7013 13.681 11.6284 12.9693 12.0574Z" fill="#EE1D52"/>
<path id="Vector_2" d="M37.4406 4.4422C32.4263 4.53439 29.4596 7.50011 27.4721 10.4217C27.3829 10.556 27.2807 10.6773 27.1724 10.7855L23.8618 21.4726L30.9949 29.3704L27.2996 45.5601C27.3065 45.558 27.3137 45.5561 27.3196 45.554C27.3196 45.554 31.8829 43.7319 35.5132 41.2473C41.0397 37.4819 50 30.0882 50 19.6676C50 9.09669 44.0215 4.30792 37.4406 4.4422Z" fill="#EE1D52"/>
</g>
</g>
</g>
</svg>
