<svg width="35" height="35" viewBox="0 0 35 35" fill="none" xmlns="http://www.w3.org/2000/svg">
<path d="M28 15.7063H9.8L19.075 6.43128C19.2408 6.27324 19.3728 6.08318 19.463 5.87261C19.5532 5.66204 19.5997 5.43535 19.5997 5.20628C19.5997 4.97721 19.5532 4.75052 19.463 4.53995C19.3728 4.32938 19.2408 4.13932 19.075 3.98128C18.917 3.81546 18.7269 3.68345 18.5163 3.59325C18.3058 3.50305 18.0791 3.45654 17.85 3.45654C17.6209 3.45654 17.3942 3.50305 17.1837 3.59325C16.9731 3.68345 16.783 3.81546 16.625 3.98128L6.825 13.7813C5.96915 14.6556 5.44338 15.7999 5.3375 17.0188C5.3375 17.1938 5.25 17.2813 5.25 17.4563C5.23614 17.6358 5.26617 17.816 5.3375 17.9813C5.46091 19.1955 5.98414 20.3342 6.825 21.2188L16.625 31.0188C16.951 31.3383 17.3899 31.5162 17.8464 31.5139C18.3028 31.5116 18.7399 31.3292 19.0627 31.0065C19.3855 30.6837 19.5678 30.2466 19.5701 29.7902C19.5724 29.3337 19.3945 28.8948 19.075 28.5688L9.8875 19.2063H28C28.4641 19.2063 28.9092 19.0219 29.2374 18.6937C29.5656 18.3655 29.75 17.9204 29.75 17.4563C29.75 16.9922 29.5656 16.547 29.2374 16.2188C28.9092 15.8907 28.4641 15.7063 28 15.7063Z" fill="black"/>
</svg>
