<svg width="144" height="144" viewBox="0 0 144 144" fill="none" xmlns="http://www.w3.org/2000/svg">
<g clip-path="url(#clip0_78_2248)">
<path d="M94.6142 95.1597C95.0696 95.6151 95.6643 95.8378 96.2583 95.8378C96.853 95.8378 97.4478 95.6105 97.9024 95.1597C98.8085 94.2536 98.8085 92.7815 97.9024 91.8754L73.6469 67.6246C73.6469 67.6246 73.6469 67.6246 73.6423 67.6199L72.0028 65.9805L70.3634 67.6199C70.3634 67.6199 70.3634 67.6199 70.3587 67.6246L46.1025 91.8762C45.1963 92.7823 45.1963 94.2544 46.1025 95.1605C47.0086 96.0666 48.4807 96.0666 49.3868 95.1605L69.6807 74.8713V115.784C69.6807 117.067 70.7215 118.107 72.0028 118.107C73.285 118.107 74.325 117.066 74.325 115.784V74.8706L94.6142 95.1597Z" fill="#0452A1"/>
<path d="M117.593 52.6809C111.875 36.5955 96.779 25.8838 79.5873 25.8838C63.3859 25.8838 48.8138 35.6286 42.5105 50.4C39.5422 49.0253 36.3139 48.3099 33.035 48.3099C20.5398 48.3099 10.3676 58.4642 10.3443 70.9539C3.8464 75.9244 0 83.6445 0 91.8573C0 106.331 11.8078 118.106 26.7092 118.111C26.8766 118.111 27.0439 118.116 27.1926 118.116C27.3507 118.116 27.49 118.116 27.6013 118.106H52.0802C53.3623 118.106 54.4024 117.066 54.4024 115.784C54.4024 114.503 53.3616 113.462 52.0802 113.462H27.4799C27.2526 113.476 27.0151 113.467 26.7878 113.462L26.3137 113.457C14.3666 113.457 4.64511 103.768 4.64511 91.8534C4.64511 84.7328 8.15677 78.0574 14.0373 74.007L15.1054 72.9437L14.9894 71.0022C14.9894 61.0526 23.0854 52.9565 33.035 52.9565C36.37 52.9565 39.645 53.8946 42.5058 55.6648L44.9627 57.1883L45.9194 54.4566C50.9265 40.1453 64.4532 30.5351 79.5912 30.5351C95.2174 30.5351 108.892 40.5361 113.616 55.4274L114.048 56.7881L115.46 57.0155C129.302 59.2543 139.354 71.0528 139.354 85.0714C139.354 100.729 126.585 113.466 110.894 113.466H91.919C90.6369 113.466 89.5969 114.507 89.5969 115.788C89.5969 117.069 90.6377 118.11 91.919 118.11H110.894C129.149 118.11 143.999 103.288 143.999 85.0706C143.995 69.2312 132.973 55.8306 117.593 52.6809Z" fill="#0452A1"/>
</g>
<defs>
<clipPath id="clip0_78_2248">
<rect width="144" height="144" fill="white"/>
</clipPath>
</defs>
</svg>
