<svg width="28" height="28" viewBox="0 0 28 28" fill="none" xmlns="http://www.w3.org/2000/svg">
<g id="dark-mode-solid-svgrepo-com 1" clip-path="url(#clip0_414_1129)">
<g id="SVGRepo_iconCarrier">
<g id="Layer 2">
<g id="Icons">
<g id="Group">
<g id="Group_2">
<path id="Vector" d="M8.375 14C8.375 15.4918 8.96763 16.9226 10.0225 17.9775C11.0774 19.0324 12.5082 19.625 14 19.625V8.375C12.5082 8.375 11.0774 8.96763 10.0225 10.0225C8.96763 11.0774 8.375 12.5082 8.375 14Z" fill="black"/>
<path id="Vector_2" d="M14 1.62513C11.5525 1.62513 9.15988 2.35091 7.12482 3.71069C5.08977 5.07047 3.50363 7.00319 2.567 9.26442C1.63036 11.5257 1.3853 14.0139 1.86279 16.4144C2.34028 18.8149 3.51888 21.0199 5.24956 22.7506C6.98023 24.4813 9.18525 25.6599 11.5858 26.1373C13.9863 26.6148 16.4745 26.3698 18.7357 25.4331C20.9969 24.4965 22.9297 22.9104 24.2894 20.8753C25.6492 18.8403 26.375 16.4477 26.375 14.0001C26.3825 12.3729 26.0674 10.7604 25.4482 9.25562C24.8289 7.75086 23.9177 6.38369 22.7671 5.23308C21.6164 4.08247 20.2493 3.17122 18.7445 2.55195C17.2397 1.93269 15.6272 1.61768 14 1.62513ZM3.87501 14.0001C3.88978 11.3194 4.96126 8.75261 6.85687 6.85699C8.75248 4.96138 11.3192 3.8899 14 3.87513V8.37513C15.4918 8.37513 16.9226 8.96776 17.9775 10.0227C19.0324 11.0775 19.625 12.5083 19.625 14.0001C19.625 15.492 19.0324 16.9227 17.9775 17.9776C16.9226 19.0325 15.4918 19.6251 14 19.6251V24.1251C11.3192 24.1104 8.75248 23.0389 6.85687 21.1433C4.96126 19.2477 3.88978 16.6809 3.87501 14.0001Z" fill="black"/>
</g>
</g>
</g>
</g>
</g>
</g>
<defs>
<clipPath id="clip0_414_1129">
<rect width="27" height="27" fill="white" transform="translate(0.5 0.5)"/>
</clipPath>
</defs>
</svg>
