<svg width="29" height="28" viewBox="0 0 29 28" fill="none" xmlns="http://www.w3.org/2000/svg">
<g id="dashboard-svgrepo-com">
<path id="Vector" fill-rule="evenodd" clip-rule="evenodd" d="M17.3414 5.00821C16.9997 5.34993 16.9997 5.89989 16.9997 6.99984C16.9997 8.09978 16.9997 8.64975 17.3414 8.99147C17.6831 9.33317 18.2331 9.33317 19.333 9.33317H21.6663C22.7663 9.33317 23.3162 9.33317 23.658 8.99147C23.9997 8.64975 23.9997 8.09978 23.9997 6.99984C23.9997 5.89989 23.9997 5.34993 23.658 5.00821C23.3162 4.6665 22.7663 4.6665 21.6663 4.6665H19.333C18.2331 4.6665 17.6831 4.6665 17.3414 5.00821ZM5.67471 19.0082C5.33301 19.3499 5.33301 19.8999 5.33301 20.9998C5.33301 22.0998 5.33301 22.6497 5.67471 22.9915C6.01643 23.3332 6.5664 23.3332 7.66634 23.3332H9.99967C11.0996 23.3332 11.6496 23.3332 11.9913 22.9915C12.333 22.6497 12.333 22.0998 12.333 20.9998C12.333 19.8999 12.333 19.3499 11.9913 19.0082C11.6496 18.6665 11.0996 18.6665 9.99967 18.6665H7.66634C6.5664 18.6665 6.01643 18.6665 5.67471 19.0082ZM16.9997 16.3332C16.9997 15.2332 16.9997 14.6833 17.3414 14.3416C17.6831 13.9998 18.2331 13.9998 19.333 13.9998H21.6663C22.7663 13.9998 23.3162 13.9998 23.658 14.3416C23.9997 14.6833 23.9997 15.2332 23.9997 16.3332V20.9998C23.9997 22.0998 23.9997 22.6497 23.658 22.9915C23.3162 23.3332 22.7663 23.3332 21.6663 23.3332H19.333C18.2331 23.3332 17.6831 23.3332 17.3414 22.9915C16.9997 22.6497 16.9997 22.0998 16.9997 20.9998V16.3332ZM5.67471 5.00821C5.33301 5.34993 5.33301 5.89989 5.33301 6.99984V11.6665C5.33301 12.7664 5.33301 13.3164 5.67471 13.6581C6.01643 13.9998 6.5664 13.9998 7.66634 13.9998H9.99967C11.0996 13.9998 11.6496 13.9998 11.9913 13.6581C12.333 13.3164 12.333 12.7664 12.333 11.6665V6.99984C12.333 5.89989 12.333 5.34993 11.9913 5.00821C11.6496 4.6665 11.0996 4.6665 9.99967 4.6665H7.66634C6.5664 4.6665 6.01643 4.6665 5.67471 5.00821Z" fill="#00B012"/>
<path id="Vector_2" fill-rule="evenodd" clip-rule="evenodd" d="M6.29346 5.62695L6.29629 5.62536C6.29855 5.62418 6.30242 5.62229 6.3083 5.61987C6.33371 5.60942 6.39014 5.59157 6.50278 5.57643C6.74863 5.54337 7.09163 5.54152 7.66635 5.54152H9.99968C10.5744 5.54152 10.9174 5.54337 11.1632 5.57643C11.2759 5.59157 11.3323 5.60942 11.3577 5.61987C11.3636 5.62229 11.3675 5.62418 11.3697 5.62536L11.3726 5.62695L11.3742 5.6298C11.3754 5.63205 11.3772 5.63593 11.3797 5.64181C11.3901 5.66722 11.408 5.72364 11.4231 5.83629C11.4562 6.08213 11.458 6.42514 11.458 6.99985V11.6665C11.458 12.2412 11.4562 12.5842 11.4231 12.83C11.408 12.9427 11.3901 12.9992 11.3797 13.0245C11.3772 13.0305 11.3754 13.0343 11.3742 13.0365L11.3726 13.0394L11.3697 13.041C11.3675 13.0422 11.3636 13.0441 11.3577 13.0464C11.3323 13.0569 11.2759 13.0748 11.1632 13.09C10.9174 13.123 10.5744 13.1248 9.99968 13.1248H7.66635C7.09163 13.1248 6.74863 13.123 6.50278 13.09C6.39014 13.0748 6.33371 13.0569 6.3083 13.0464C6.30242 13.0441 6.29855 13.0422 6.29629 13.041L6.29346 13.0394L6.29185 13.0365C6.29067 13.0343 6.28878 13.0305 6.28637 13.0245C6.27591 12.9992 6.25807 12.9427 6.24292 12.83C6.20987 12.5842 6.20801 12.2412 6.20801 11.6665V6.99985C6.20801 6.42514 6.20987 6.08213 6.24292 5.83629C6.25807 5.72364 6.27591 5.66722 6.28637 5.64181C6.28878 5.63593 6.29067 5.63205 6.29185 5.6298L6.29346 5.62695ZM7.61414 3.79151C7.6315 3.79152 7.64889 3.79152 7.66635 3.79152H9.99968C10.0171 3.79152 10.0345 3.79152 10.0519 3.79151C10.5568 3.79145 11.0198 3.7914 11.3964 3.84204C11.8112 3.89779 12.2495 4.02898 12.61 4.38951C12.9706 4.75003 13.1017 5.18838 13.1575 5.60311C13.2081 5.97972 13.2081 6.4427 13.208 6.94764C13.208 6.965 13.208 6.9824 13.208 6.99985V11.6665C13.208 11.684 13.208 11.7014 13.208 11.7188C13.2081 12.2237 13.2081 12.6866 13.1575 13.0632C13.1017 13.478 12.9706 13.9163 12.61 14.2768C12.2495 14.6374 11.8112 14.7686 11.3964 14.8243C11.0198 14.875 10.5568 14.875 10.0519 14.8748C10.0345 14.8748 10.0171 14.8748 9.99968 14.8748H7.66635C7.64889 14.8748 7.6315 14.8748 7.61415 14.8748C7.10919 14.875 6.64621 14.875 6.2696 14.8243C5.85487 14.7686 5.41653 14.6374 5.056 14.2768C4.69548 13.9163 4.56428 13.478 4.50853 13.0632C4.4579 12.6866 4.45794 12.2237 4.45801 11.7188C4.45801 11.7014 4.45801 11.684 4.45801 11.6665V6.99985C4.45801 6.9824 4.45801 6.96499 4.45801 6.94764C4.45794 6.44269 4.4579 5.97972 4.50853 5.60311C4.56428 5.18838 4.69548 4.75003 5.056 4.38951C5.41653 4.02898 5.85487 3.89779 6.2696 3.84204C6.64621 3.7914 7.10918 3.79145 7.61414 3.79151ZM17.963 5.62536L17.9601 5.62695L17.9586 5.6298C17.9574 5.63205 17.9554 5.63593 17.9531 5.64181C17.9426 5.66722 17.9247 5.72364 17.9096 5.83629C17.8765 6.08213 17.8747 6.42514 17.8747 6.99985C17.8747 7.57455 17.8765 7.91756 17.9096 8.1634C17.9247 8.27606 17.9426 8.33248 17.9531 8.35789C17.954 8.36024 17.9556 8.36402 17.9556 8.36402C17.9568 8.36661 17.9586 8.3699 17.9586 8.3699L17.9601 8.37274L17.963 8.37435C17.9652 8.37553 17.9691 8.37741 17.975 8.37983C18.0003 8.39029 18.0568 8.40812 18.1695 8.42327C18.4153 8.45632 18.7583 8.45819 19.333 8.45819H21.6663C22.241 8.45819 22.584 8.45632 22.8299 8.42327C22.9426 8.40812 22.999 8.39029 23.0243 8.37983C23.0303 8.37741 23.0341 8.37553 23.0364 8.37435L23.0393 8.37274L23.0408 8.3699C23.042 8.36764 23.0439 8.36378 23.0463 8.35789C23.0568 8.33248 23.0746 8.27606 23.0898 8.1634C23.1228 7.91756 23.1247 7.57455 23.1247 6.99985C23.1247 6.42514 23.1228 6.08213 23.0898 5.83629C23.0746 5.72364 23.0568 5.66722 23.0463 5.64181C23.0439 5.63593 23.042 5.63205 23.0408 5.6298L23.0393 5.62695L23.0364 5.62536C23.0341 5.62418 23.0303 5.62229 23.0243 5.61987C22.999 5.60942 22.9426 5.59157 22.8299 5.57643C22.584 5.54337 22.241 5.54152 21.6663 5.54152H19.333C18.7583 5.54152 18.4153 5.54337 18.1695 5.57643C18.0568 5.59157 18.0003 5.60942 17.975 5.61987C17.9691 5.62229 17.9652 5.62418 17.963 5.62536ZM19.2809 3.79151H21.7185C22.2235 3.79145 22.6865 3.7914 23.0631 3.84204C23.4778 3.89779 23.9161 4.02898 24.2766 4.38951C24.6373 4.75003 24.7684 5.18838 24.8242 5.60311C24.8748 5.97972 24.8748 6.44269 24.8747 6.94764V7.05205C24.8748 7.55701 24.8748 8.01997 24.8242 8.39659C24.7684 8.81132 24.6373 9.24966 24.2766 9.61019C23.9161 9.97072 23.4778 10.1019 23.0631 10.1577C22.6865 10.2083 22.2235 10.2082 21.7185 10.2082H19.2809C18.7758 10.2082 18.3129 10.2083 17.9363 10.1577C17.5215 10.1019 17.0832 9.97072 16.7227 9.61019C16.3621 9.24966 16.231 8.81132 16.1752 8.39659C16.1246 8.01997 16.1246 7.55701 16.1247 7.05205C16.1247 7.0347 16.1247 7.01729 16.1247 6.99985C16.1247 6.9824 16.1247 6.965 16.1247 6.94764C16.1246 6.4427 16.1246 5.97972 16.1752 5.60311C16.231 5.18838 16.3621 4.75003 16.7227 4.38951C17.0832 4.02898 17.5215 3.89779 17.9363 3.84204C18.3129 3.7914 18.7758 3.79145 19.2809 3.79151ZM19.2809 13.1248H21.7185C22.2235 13.1248 22.6865 13.1247 23.0631 13.1754C23.4778 13.2311 23.9161 13.3623 24.2766 13.7229C24.6373 14.0834 24.7684 14.5217 24.8242 14.9364C24.8748 15.313 24.8748 15.776 24.8747 16.281V21.0521C24.8748 21.557 24.8748 22.02 24.8242 22.3966C24.7684 22.8113 24.6373 23.2496 24.2766 23.6101C23.9161 23.9708 23.4778 24.1019 23.0631 24.1577C22.6865 24.2083 22.2235 24.2083 21.7185 24.2082H19.2809C18.7758 24.2083 18.3129 24.2083 17.9363 24.1577C17.5215 24.1019 17.0832 23.9708 16.7227 23.6101C16.3621 23.2496 16.231 22.8113 16.1752 22.3966C16.1246 22.02 16.1246 21.557 16.1247 21.0521V16.3332C16.1247 16.3158 16.1247 16.2983 16.1247 16.281C16.1246 15.776 16.1246 15.313 16.1752 14.9364C16.231 14.5217 16.3621 14.0834 16.7227 13.7229C17.0832 13.3623 17.5215 13.2311 17.9363 13.1754C18.3129 13.1247 18.7758 13.1248 19.2809 13.1248ZM17.963 14.9587L17.9601 14.9602L17.9586 14.9632C17.9574 14.9654 17.9554 14.9692 17.9531 14.9752C17.9426 15.0006 17.9247 15.057 17.9096 15.1697C17.8765 15.4155 17.8747 15.7585 17.8747 16.3332V20.9998C17.8747 21.5745 17.8765 21.9175 17.9096 22.1634C17.9247 22.2761 17.9426 22.3325 17.9531 22.3578C17.9554 22.3638 17.9574 22.3676 17.9586 22.3699L17.9601 22.3728L17.963 22.3743C17.9652 22.3756 17.9691 22.3774 17.975 22.3798C18.0003 22.3903 18.0568 22.4081 18.1695 22.4233C18.4153 22.4563 18.7583 22.4582 19.333 22.4582H21.6663C22.241 22.4582 22.584 22.4563 22.8299 22.4233C22.9426 22.4081 22.999 22.3903 23.0243 22.3798C23.0303 22.3774 23.0341 22.3756 23.0364 22.3743L23.0393 22.3728L23.0408 22.3699C23.042 22.3676 23.0439 22.3638 23.0463 22.3578C23.0568 22.3325 23.0746 22.2761 23.0898 22.1634C23.1228 21.9175 23.1247 21.5745 23.1247 20.9998V16.3332C23.1247 15.7585 23.1228 15.4155 23.0898 15.1697C23.0746 15.057 23.0568 15.0006 23.0463 14.9752C23.0449 14.9717 23.0436 14.9689 23.0427 14.9667L23.0408 14.9632L23.0393 14.9602L23.0364 14.9587C23.0341 14.9576 23.0303 14.9556 23.0243 14.9532C22.999 14.9427 22.9426 14.9249 22.8299 14.9097C22.584 14.8767 22.241 14.8748 21.6663 14.8748H19.333C18.7583 14.8748 18.4153 14.8767 18.1695 14.9097C18.0568 14.9249 18.0003 14.9427 17.975 14.9532C17.9691 14.9556 17.9652 14.9576 17.963 14.9587ZM6.29629 19.6254L6.29346 19.6269L6.29185 19.6298C6.29067 19.632 6.28878 19.6359 6.28637 19.6418C6.27591 19.6673 6.25806 19.7236 6.24292 19.8363C6.20987 20.0821 6.20801 20.4251 6.20801 20.9998C6.20801 21.5745 6.20987 21.9175 6.24292 22.1634C6.25806 22.2761 6.27591 22.3325 6.28637 22.3578C6.28878 22.3638 6.29067 22.3676 6.29185 22.3699L6.29346 22.3728L6.29629 22.3743C6.29855 22.3756 6.30242 22.3774 6.3083 22.3798C6.33371 22.3903 6.39014 22.4081 6.50278 22.4233C6.74863 22.4563 7.09163 22.4582 7.66635 22.4582H9.99968C10.5744 22.4582 10.9174 22.4563 11.1632 22.4233C11.2759 22.4081 11.3323 22.3903 11.3577 22.3798C11.3607 22.3786 11.3651 22.3766 11.3651 22.3766L11.3697 22.3743L11.3726 22.3728L11.3742 22.3699L11.3759 22.3665C11.3769 22.3643 11.3782 22.3615 11.3797 22.3578C11.3901 22.3325 11.408 22.2761 11.4231 22.1634C11.4562 21.9175 11.458 21.5745 11.458 20.9998C11.458 20.4251 11.4562 20.0821 11.4231 19.8363C11.408 19.7236 11.3901 19.6673 11.3797 19.6418C11.3772 19.6359 11.3754 19.632 11.3742 19.6298L11.3726 19.6269L11.3697 19.6254C11.3675 19.6242 11.3636 19.6222 11.3577 19.6199C11.3323 19.6094 11.2759 19.5916 11.1632 19.5764C10.9174 19.5434 10.5744 19.5415 9.99968 19.5415H7.66635C7.09163 19.5415 6.74863 19.5434 6.50278 19.5764C6.39014 19.5916 6.33371 19.6094 6.3083 19.6199C6.30242 19.6222 6.29855 19.6242 6.29629 19.6254ZM7.61415 17.7915H10.0519C10.5568 17.7915 11.0198 17.7914 11.3964 17.842C11.8112 17.8978 12.2495 18.0289 12.61 18.3895C12.9706 18.75 13.1017 19.1884 13.1575 19.6031C13.2081 19.9797 13.2081 20.4426 13.208 20.9477V21.0521C13.2081 21.557 13.2081 22.02 13.1575 22.3966C13.1017 22.8113 12.9706 23.2496 12.61 23.6101C12.2495 23.9708 11.8112 24.1019 11.3964 24.1577C11.0198 24.2083 10.5568 24.2083 10.0519 24.2082H7.61414C7.10919 24.2083 6.64621 24.2083 6.2696 24.1577C5.85487 24.1019 5.41653 23.9708 5.056 23.6101C4.69548 23.2496 4.56428 22.8113 4.50853 22.3966C4.4579 22.02 4.45794 21.557 4.45801 21.0521V20.9477C4.45794 20.4426 4.4579 19.9797 4.50853 19.6031C4.56428 19.1884 4.69548 18.75 5.056 18.3895C5.41653 18.0289 5.85487 17.8978 6.2696 17.842C6.64621 17.7914 7.10919 17.7915 7.61415 17.7915Z" fill="#00B012"/>
</g>
</svg>
