<svg width="25" height="25" viewBox="0 0 25 25" fill="none" xmlns="http://www.w3.org/2000/svg">
<g id="Group">
<path id="Vector" d="M24.8245 10.2282C24.7042 9.92742 24.5274 9.65798 24.2991 9.42684L23.1776 8.29239C22.9493 8.06124 22.6833 7.88231 22.386 7.76051C22.0996 7.6432 21.7966 7.58301 21.4863 7.58301C21.1761 7.58301 20.8731 7.64238 20.5867 7.76051C20.2896 7.88233 20.0234 8.06127 19.7951 8.29239L12.5364 15.6395C12.4466 15.7304 12.3965 15.8539 12.3965 15.9822V19.8566C12.3965 20.1244 12.6111 20.3408 12.8748 20.3408H16.7023C16.8291 20.3408 16.9509 20.2894 17.0409 20.1991L24.299 12.852C24.5274 12.6209 24.7041 12.3517 24.8244 12.0507C24.9403 11.7608 24.9998 11.4541 24.9998 11.1401C24.9992 10.8254 24.9403 10.5187 24.8244 10.2282L24.8245 10.2282ZM16.5044 19.372H13.3533V17.1508L14.4502 18.2611C14.5436 18.3557 14.6662 18.4028 14.7888 18.4028C14.9113 18.4028 15.0337 18.3559 15.1273 18.2611C15.3144 18.0717 15.3144 17.765 15.1273 17.5765L13.5512 15.982L19.5729 9.8865L22.724 13.0762L16.5044 19.372ZM23.6228 12.1664L23.4003 12.3916L20.2492 9.20205L20.4717 8.97684C21.0313 8.41031 21.9417 8.41031 22.5013 8.97684L23.6228 10.1119C23.8938 10.3862 24.0433 10.751 24.0433 11.1392C24.0425 11.5274 23.8938 11.892 23.6228 12.1664V12.1664Z" fill="black"/>
<path id="Vector_2" d="M22.8482 19.3721H19.1121C18.8476 19.3721 18.6338 19.5893 18.6338 19.8563C18.6338 20.1234 18.8476 20.3405 19.1121 20.3405H22.8482C23.1127 20.3405 23.3265 20.1232 23.3265 19.8563C23.3267 19.5893 23.1121 19.3721 22.8482 19.3721Z" fill="black"/>
<path id="Vector_3" d="M10.9614 19.3722H7.13392C6.3423 19.3722 5.69871 18.7205 5.69871 17.9194V2.42222C5.69871 1.62089 6.34251 0.969412 7.13392 0.969412H18.616C19.4077 0.969412 20.0513 1.6211 20.0513 2.42222V6.29662C20.0513 6.56441 20.265 6.78082 20.5296 6.78082C20.7941 6.78082 21.0079 6.56441 21.0079 6.29662L21.0081 2.42222C21.0081 2.09567 20.945 1.77876 20.8196 1.47943C20.6993 1.19096 20.5268 0.93199 20.3071 0.709606C20.0875 0.487264 19.8316 0.312627 19.5466 0.190811C19.2515 0.0646975 18.9384 0 18.6152 0H7.13312C6.81052 0 6.49745 0.0638798 6.20175 0.190811C5.91677 0.312627 5.66094 0.487264 5.44125 0.709606C5.22156 0.931948 5.04908 1.19094 4.92874 1.47943C4.80415 1.77814 4.74023 2.0959 4.74023 2.42222V17.9194C4.74023 18.2459 4.80334 18.5629 4.92874 18.8622C5.04908 19.1507 5.2216 19.4096 5.44125 19.632C5.6609 19.8544 5.91675 20.029 6.20175 20.1508C6.49684 20.2769 6.81075 20.3416 7.13312 20.3416H10.9606C11.2251 20.3416 11.4389 20.1252 11.4389 19.8574C11.4391 19.5894 11.226 19.3722 10.9614 19.3722Z" fill="black"/>
<path id="Vector_4" d="M8.09113 9.68652C7.82658 9.68652 7.61279 9.90293 7.61279 10.1707C7.61279 10.4385 7.82658 10.6549 8.09113 10.6549H13.8322C14.0967 10.6549 14.3105 10.4385 14.3105 10.1707C14.3105 9.90293 14.0967 9.68652 13.8322 9.68652H8.09113Z" fill="black"/>
<path id="Vector_5" d="M18.1379 5.32795C18.1379 5.06015 17.9233 4.84375 17.6596 4.84375H8.09113C7.82658 4.84375 7.61279 5.06015 7.61279 5.32795C7.61279 5.59574 7.82658 5.81215 8.09113 5.81215H17.6596C17.9241 5.81215 18.1379 5.59492 18.1379 5.32795Z" fill="black"/>
<g id="v">
<path id="Vector_6" d="M0.0233953 24.9538C0.0221943 24.9544 0.0209933 24.955 0.0193919 24.9554C0.0177906 24.9558 0.0163894 24.9562 0.0153885 24.9562C0.0109848 24.9562 0.0075821 24.9552 0.00497996 24.953C0.00217756 24.9504 0.000976562 24.947 0.000976562 24.9426C0.000976562 24.9384 0.00217761 24.935 0.00497996 24.9322C0.00758215 24.9296 0.0109852 24.9282 0.0153885 24.9282C0.0163894 24.9282 0.0177906 24.9286 0.0193919 24.929C0.0209933 24.9296 0.0221943 24.9302 0.0233953 24.9306V24.9362C0.0221943 24.9352 0.0209933 24.9346 0.0193919 24.9346C0.0181909 24.9342 0.0169899 24.9338 0.0153885 24.9338C0.0131866 24.9338 0.0113851 24.9346 0.00978352 24.9362C0.00858253 24.9374 0.00818216 24.9394 0.00818216 24.9426C0.00818216 24.9454 0.00858253 24.9474 0.00978352 24.949C0.0113849 24.9502 0.0131864 24.9506 0.0153885 24.9506H0.0193919C0.0209933 24.9502 0.0221943 24.9496 0.0233953 24.949V24.9538Z" fill="black"/>
</g>
<g id="c">
<path id="Vector_7" d="M0.043533 24.9424C0.0429324 24.942 0.0423319 24.9416 0.0419316 24.9416C0.0413311 24.9412 0.0407306 24.9408 0.0403302 24.9408C0.0387289 24.9408 0.0373277 24.9414 0.0363268 24.9424C0.0357263 24.9436 0.0355262 24.9452 0.0355262 24.9472V24.9561H0.0283203V24.9368H0.0355262V24.94C0.0359265 24.9384 0.0367272 24.9374 0.0379282 24.9368C0.038929 24.9364 0.0403302 24.936 0.0419316 24.936H0.043533V24.9424Z" fill="black"/>
</g>
<g id="a">
<path id="Vector_8" d="M0.0662281 24.9456V24.948H0.0518158C0.0518158 24.9496 0.052016 24.9508 0.0526165 24.9512C0.0536174 24.9518 0.0552187 24.952 0.0574206 24.952H0.0606233C0.0622247 24.9516 0.063826 24.9508 0.0654274 24.9496V24.9553C0.063826 24.9553 0.0622247 24.9557 0.0606233 24.9561C0.0594223 24.9565 0.0582213 24.9569 0.0566199 24.9569C0.0528167 24.9569 0.0498143 24.9561 0.0478122 24.9545C0.0462108 24.9524 0.0454102 24.9496 0.0454102 24.9464C0.0454102 24.9432 0.0462108 24.9408 0.0478122 24.9392C0.0498139 24.9372 0.0526163 24.936 0.055819 24.936C0.0590217 24.936 0.061424 24.9372 0.0630248 24.9392C0.0650265 24.9408 0.0662281 24.943 0.0662281 24.9456ZM0.0598226 24.944C0.0598226 24.943 0.0592221 24.9422 0.0582213 24.9416C0.0576208 24.9406 0.0568201 24.94 0.0558192 24.94C0.0546182 24.94 0.0536174 24.9406 0.0526165 24.9416C0.052016 24.9422 0.0518158 24.943 0.0518158 24.944H0.0598226Z" fill="black"/>
</g>
<g id="g">
<path id="Vector_9" d="M0.080233 24.9472C0.0790321 24.9472 0.0780312 24.9476 0.0770303 24.948C0.0764298 24.9486 0.0762297 24.9492 0.0762297 24.9496C0.0762297 24.9508 0.0764298 24.9516 0.0770303 24.952H0.0786317C0.080233 24.952 0.0812339 24.9518 0.0818344 24.9512C0.0828352 24.9502 0.0834358 24.9492 0.0834358 24.948V24.9472H0.080233ZM0.0898412 24.9448V24.9561H0.0834358V24.9537C0.0822348 24.9549 0.0812339 24.9557 0.080233 24.9561C0.0790321 24.9565 0.077831 24.9569 0.0762297 24.9569C0.0746283 24.9569 0.0730269 24.9563 0.0714256 24.9553C0.0702245 24.9543 0.0698242 24.9524 0.0698242 24.9496C0.0698242 24.9476 0.0706249 24.9462 0.0722263 24.9456C0.0738276 24.9446 0.0762297 24.944 0.0794321 24.944H0.0834355V24.9432C0.0834355 24.9422 0.082835 24.9414 0.0818341 24.9408C0.0812336 24.9404 0.0802328 24.94 0.0786314 24.94C0.0770301 24.94 0.0756289 24.9404 0.074628 24.9408C0.073427 24.9408 0.0724262 24.9412 0.0714253 24.9416V24.9368H0.0754287C0.0770301 24.9364 0.0782311 24.936 0.0794321 24.936C0.0830351 24.936 0.0858375 24.9368 0.0874389 24.9384C0.0890403 24.9396 0.0898412 24.9416 0.0898412 24.9448Z" fill="black"/>
</g>
<g id="b">
<path id="Vector_10" d="M0.10287 24.9307V24.9363H0.108475V24.9403H0.10287V24.9491V24.9507H0.104472H0.108475V24.9555H0.10287C0.100068 24.9555 0.0982662 24.9551 0.0972651 24.9539C0.0960641 24.9529 0.0956638 24.9513 0.0956638 24.9491V24.9403H0.0932617V24.9363H0.0956638V24.9307H0.10287Z" fill="black"/>
</g>
<g id="a_2">
<path id="Vector_11" d="M0.132634 24.9456V24.948H0.118222C0.118222 24.9496 0.118422 24.9508 0.119023 24.9512C0.120024 24.9518 0.121625 24.952 0.123827 24.952H0.12703C0.128631 24.9516 0.130232 24.9508 0.131834 24.9496V24.9553C0.130232 24.9553 0.128631 24.9557 0.12703 24.9561C0.125829 24.9565 0.124628 24.9569 0.123026 24.9569C0.119223 24.9569 0.116221 24.9561 0.114218 24.9545C0.112617 24.9524 0.111816 24.9496 0.111816 24.9464C0.111816 24.9432 0.112617 24.9408 0.114218 24.9392C0.11622 24.9372 0.119023 24.936 0.122225 24.936C0.125428 24.936 0.12783 24.9372 0.129431 24.9392C0.131433 24.9408 0.132634 24.943 0.132634 24.9456ZM0.126229 24.944C0.126229 24.943 0.125628 24.9422 0.124628 24.9416C0.124027 24.9406 0.123226 24.94 0.122225 24.94C0.121024 24.94 0.120024 24.9406 0.119023 24.9416C0.118422 24.9422 0.118222 24.943 0.118222 24.944H0.126229Z" fill="black"/>
</g>
<g id="l">
<path id="Vector_12" d="M0.150643 24.9386V24.9282H0.157048V24.9554H0.150643V24.953C0.150042 24.9542 0.149241 24.955 0.148241 24.9554C0.14704 24.9558 0.146039 24.9562 0.145038 24.9562C0.142236 24.9562 0.140234 24.9554 0.138633 24.9538C0.137031 24.9518 0.13623 24.949 0.13623 24.9458C0.13623 24.9426 0.137031 24.9402 0.138633 24.9386C0.140234 24.9366 0.142236 24.9354 0.145038 24.9354C0.146039 24.9354 0.14704 24.9358 0.148241 24.9362C0.149241 24.9368 0.150042 24.9376 0.150643 24.9386ZM0.146639 24.9514C0.14764 24.9514 0.148441 24.9512 0.149041 24.9506C0.150042 24.9496 0.150643 24.948 0.150643 24.9458C0.150643 24.9442 0.150042 24.943 0.149041 24.9418C0.148441 24.9402 0.14764 24.9394 0.146639 24.9394C0.145438 24.9394 0.144437 24.9402 0.143437 24.9418C0.142836 24.943 0.142636 24.9442 0.142636 24.9458C0.142636 24.948 0.142836 24.9496 0.143437 24.9506C0.144437 24.9512 0.145438 24.9514 0.146639 24.9514Z" fill="black"/>
</g>
<g id="k">
<path id="Vector_13" d="M0.186502 24.9514C0.188104 24.9514 0.189104 24.9512 0.189705 24.9506C0.190105 24.9496 0.190506 24.948 0.190506 24.9458C0.190506 24.9442 0.190105 24.943 0.189705 24.9418C0.189104 24.9402 0.188104 24.9394 0.186502 24.9394C0.184901 24.9394 0.1837 24.9402 0.1833 24.9418C0.182699 24.943 0.182499 24.9442 0.182499 24.9458C0.182499 24.9474 0.182699 24.9488 0.1833 24.9498C0.1837 24.951 0.184901 24.9514 0.186502 24.9514ZM0.182499 24.9386C0.182899 24.9376 0.1837 24.9368 0.184901 24.9362C0.185902 24.9358 0.187303 24.9354 0.188904 24.9354C0.190906 24.9354 0.192908 24.9366 0.194509 24.9386C0.196111 24.9402 0.196911 24.9426 0.196911 24.9458C0.196911 24.949 0.196111 24.9518 0.194509 24.9538C0.192908 24.9554 0.190906 24.9562 0.188904 24.9562C0.187303 24.9562 0.185902 24.9558 0.184901 24.9554C0.1837 24.955 0.182899 24.9542 0.182499 24.953V24.9554H0.175293V24.9282H0.182499V24.9386Z" fill="black"/>
</g>
<g id="j">
<path id="Vector_14" d="M0.199707 24.937H0.205312L0.210917 24.9498L0.21492 24.937H0.222126L0.213319 24.9578C0.212718 24.9598 0.211917 24.9614 0.210917 24.9626C0.209716 24.9636 0.208114 24.9642 0.206112 24.9642H0.202109V24.9594H0.204511C0.205512 24.9594 0.206112 24.959 0.206112 24.9586C0.206513 24.9586 0.207113 24.958 0.207714 24.957L0.199707 24.937Z" fill="black"/>
</g>
<g id="f">
<path id="Vector_15" d="M0.238282 24.9292H0.245488L0.255096 24.9476V24.9292H0.262302V24.9556H0.254295L0.244687 24.938V24.9556H0.238281L0.238282 24.9292Z" fill="black"/>
</g>
<g id="a_3">
<path id="Vector_16" d="M0.288396 24.9456V24.948H0.273984C0.273984 24.9496 0.274184 24.9508 0.274784 24.9512C0.275785 24.9518 0.277387 24.952 0.279589 24.952H0.282791C0.284393 24.9516 0.285994 24.9508 0.287595 24.9496V24.9553C0.285994 24.9553 0.284393 24.9557 0.282791 24.9561C0.28159 24.9565 0.280389 24.9569 0.278788 24.9569C0.274985 24.9569 0.271982 24.9561 0.26998 24.9545C0.268379 24.9524 0.267578 24.9496 0.267578 24.9464C0.267578 24.9432 0.268379 24.9408 0.26998 24.9392C0.271982 24.9372 0.274784 24.936 0.277987 24.936C0.28119 24.936 0.283592 24.9372 0.285193 24.9392C0.287194 24.9408 0.288396 24.943 0.288396 24.9456ZM0.281991 24.944C0.281991 24.943 0.28139 24.9422 0.280389 24.9416C0.279789 24.9406 0.278988 24.94 0.277987 24.94C0.276786 24.94 0.275785 24.9406 0.274784 24.9416C0.274184 24.9422 0.273984 24.943 0.273984 24.944H0.281991Z" fill="black"/>
</g>
<g id="i">
<path id="Vector_17" d="M0.308806 24.9368V24.9424C0.307205 24.9414 0.305603 24.9408 0.304002 24.9408C0.302801 24.9404 0.3018 24.94 0.300799 24.94C0.299598 24.94 0.298798 24.9404 0.298397 24.9408C0.297797 24.9408 0.297597 24.9414 0.297597 24.9424C0.297597 24.9424 0.297797 24.9428 0.298397 24.9432C0.298798 24.9438 0.299598 24.944 0.300799 24.944H0.302401C0.305003 24.944 0.306804 24.9446 0.308006 24.9456C0.309007 24.9468 0.309607 24.9484 0.309607 24.9504C0.309607 24.9526 0.308806 24.9543 0.307205 24.9553C0.306004 24.9563 0.304002 24.9569 0.3008 24.9569C0.299198 24.9569 0.297797 24.9565 0.296796 24.9561C0.295595 24.9561 0.294394 24.9559 0.292793 24.9553V24.9504C0.293794 24.951 0.294795 24.9516 0.295996 24.952H0.3008H0.303202C0.303602 24.9516 0.304002 24.951 0.304002 24.9504C0.304002 24.95 0.303602 24.9496 0.303202 24.9496C0.302601 24.9492 0.3018 24.9486 0.3008 24.948H0.299999C0.296796 24.948 0.294594 24.9476 0.293594 24.9464C0.292393 24.9454 0.291992 24.944 0.291992 24.9424C0.291992 24.9404 0.292793 24.9388 0.294394 24.9376C0.295996 24.9366 0.297997 24.936 0.3008 24.936C0.3018 24.936 0.302801 24.9364 0.304002 24.9368L0.308806 24.9368Z" fill="black"/>
</g>
<g id="b_2">
<path id="Vector_18" d="M0.322597 24.9307V24.9363H0.328202V24.9403H0.322597V24.9491V24.9507H0.324198H0.328202V24.9555H0.322597C0.319794 24.9555 0.317993 24.9551 0.316992 24.9539C0.315791 24.9529 0.31539 24.9513 0.31539 24.9491V24.9403H0.312988V24.9363H0.31539V24.9307H0.322597Z" fill="black"/>
</g>
<g id="a_4">
<path id="Vector_19" d="M0.351873 24.9456V24.948H0.33746C0.33746 24.9496 0.337661 24.9508 0.338261 24.9512C0.339262 24.9518 0.340863 24.952 0.343065 24.952H0.346268C0.347869 24.9516 0.349471 24.9508 0.351072 24.9496V24.9553C0.349471 24.9553 0.347869 24.9557 0.346268 24.9561C0.345067 24.9565 0.343866 24.9569 0.342264 24.9569C0.338461 24.9569 0.335459 24.9561 0.333457 24.9545C0.331855 24.9524 0.331055 24.9496 0.331055 24.9464C0.331055 24.9432 0.331855 24.9408 0.333457 24.9392C0.335458 24.9372 0.338261 24.936 0.341464 24.936C0.344666 24.936 0.347069 24.9372 0.348669 24.9392C0.350671 24.9408 0.351873 24.943 0.351873 24.9456ZM0.345467 24.944C0.345467 24.943 0.344867 24.9422 0.343866 24.9416C0.343265 24.9406 0.342465 24.94 0.341464 24.94C0.340263 24.94 0.339262 24.9406 0.338261 24.9416C0.337661 24.9422 0.33746 24.943 0.33746 24.944H0.345467Z" fill="black"/>
</g>
<g id="c_2">
<path id="Vector_20" d="M0.37117 24.9424C0.370569 24.942 0.369969 24.9416 0.369568 24.9416C0.368968 24.9412 0.368367 24.9408 0.367967 24.9408C0.366366 24.9408 0.364964 24.9414 0.363964 24.9424C0.363363 24.9436 0.363163 24.9452 0.363163 24.9472V24.9561H0.355957V24.9368H0.363163V24.94C0.363563 24.9384 0.364364 24.9374 0.365565 24.9368C0.366566 24.9364 0.367967 24.936 0.369568 24.936H0.37117V24.9424Z" fill="black"/>
</g>
<g id="a_5">
<path id="Vector_21" d="M0.393865 24.9456V24.948H0.379453C0.379453 24.9496 0.379653 24.9508 0.380253 24.9512C0.381254 24.9518 0.382855 24.952 0.385057 24.952H0.38826C0.389861 24.9516 0.391463 24.9508 0.393064 24.9496V24.9553C0.391463 24.9553 0.389861 24.9557 0.38826 24.9561C0.387059 24.9565 0.385858 24.9569 0.384257 24.9569C0.380453 24.9569 0.377451 24.9561 0.375449 24.9545C0.373848 24.9524 0.373047 24.9496 0.373047 24.9464C0.373047 24.9432 0.373848 24.9408 0.375449 24.9392C0.377451 24.9372 0.380253 24.936 0.383456 24.936C0.386658 24.936 0.389061 24.9372 0.390662 24.9392C0.392663 24.9408 0.393865 24.943 0.393865 24.9456ZM0.387459 24.944C0.387459 24.943 0.386859 24.9422 0.385858 24.9416C0.385257 24.9406 0.384457 24.94 0.383456 24.94C0.382255 24.94 0.381254 24.9406 0.380253 24.9416C0.379653 24.9422 0.379453 24.943 0.379453 24.944H0.387459Z" fill="black"/>
</g>
<g id="e">
<path id="Vector_22" d="M0.419743 24.944V24.9561H0.412537V24.9472V24.9432V24.9424C0.412537 24.942 0.412137 24.9416 0.411736 24.9416C0.411136 24.9412 0.410535 24.9408 0.410135 24.9408C0.408934 24.9408 0.407933 24.9414 0.406932 24.9424C0.406332 24.9436 0.406132 24.9448 0.406132 24.9464V24.9561H0.398926V24.9368H0.406132V24.9392C0.406532 24.9382 0.407333 24.9374 0.408534 24.9368C0.409535 24.9364 0.410936 24.936 0.412537 24.936C0.414539 24.936 0.41614 24.9368 0.417341 24.9384C0.418943 24.9396 0.419743 24.9414 0.419743 24.944Z" fill="black"/>
</g>
<g id="u">
<path id="Vector_23" d="M0.424805 24.9282H0.432011V24.9434L0.438416 24.9362H0.445622L0.436014 24.945L0.447223 24.9554H0.439216L0.432011 24.9474V24.9554H0.424805V24.9282Z" fill="black"/>
</g>
<g id="d">
<path id="Vector_24" d="M0.458163 24.94C0.456962 24.94 0.455961 24.9406 0.45496 24.9416C0.454359 24.9428 0.454159 24.9444 0.454159 24.9464C0.454159 24.9486 0.454359 24.9502 0.45496 24.9512C0.455961 24.9518 0.456962 24.952 0.458163 24.952C0.459764 24.952 0.460765 24.9518 0.461365 24.9512C0.462366 24.9502 0.462967 24.9486 0.462967 24.9464C0.462967 24.9444 0.462366 24.9428 0.461365 24.9416C0.460765 24.9406 0.459764 24.94 0.458163 24.94ZM0.458163 24.936C0.461766 24.936 0.464568 24.9372 0.46617 24.9392C0.468171 24.9408 0.469372 24.9432 0.469372 24.9464C0.469372 24.9496 0.468171 24.9524 0.46617 24.9545C0.464568 24.9561 0.461766 24.9569 0.458163 24.9569C0.45496 24.9569 0.452158 24.9561 0.450156 24.9545C0.448555 24.9524 0.447754 24.9496 0.447754 24.9464C0.447754 24.9432 0.448555 24.9408 0.450156 24.9392C0.452158 24.9372 0.45496 24.936 0.458163 24.936Z" fill="black"/>
</g>
<g id="t">
<path id="Vector_25" d="M0.496424 24.9412C0.498026 24.9412 0.499026 24.941 0.499627 24.9404C0.500027 24.94 0.500428 24.9392 0.500428 24.938C0.500428 24.937 0.500027 24.9362 0.499627 24.9356C0.499026 24.9346 0.498026 24.934 0.496424 24.934H0.494022V24.9412L0.496424 24.9412ZM0.494022 24.9452V24.9556H0.486816V24.9292H0.497225C0.500428 24.9292 0.50283 24.93 0.504431 24.9316C0.506032 24.9328 0.506833 24.9344 0.506833 24.9364C0.506833 24.9386 0.506433 24.9402 0.506032 24.9412C0.505432 24.9424 0.504031 24.9432 0.502029 24.9436C0.50303 24.9436 0.50383 24.9442 0.504431 24.9452C0.504831 24.9458 0.505632 24.9468 0.506833 24.9484L0.510836 24.9556H0.502829L0.500427 24.9492C0.499827 24.9482 0.499026 24.9474 0.498025 24.9468C0.497425 24.9458 0.496624 24.9452 0.495623 24.9452L0.494022 24.9452Z" fill="black"/>
</g>
<g id="h">
<path id="Vector_26" d="M0.51416 24.9482V24.937H0.520566V24.9386V24.9426V24.9458V24.949C0.520966 24.9496 0.521367 24.9502 0.521367 24.9506C0.521767 24.9512 0.522167 24.9514 0.522167 24.9514H0.523769C0.524769 24.9514 0.52557 24.9512 0.526171 24.9506C0.527171 24.9496 0.527772 24.948 0.527772 24.9458V24.937H0.534177V24.9562H0.527772V24.9538C0.526571 24.955 0.52557 24.9558 0.524569 24.9562C0.523969 24.9566 0.522968 24.957 0.521367 24.957C0.519165 24.957 0.517363 24.9562 0.515762 24.9546C0.51456 24.953 0.51416 24.951 0.51416 24.9482Z" fill="black"/>
</g>
<g id="i_2">
<path id="Vector_27" d="M0.555877 24.9368V24.9424C0.554275 24.9414 0.552674 24.9408 0.551072 24.9408C0.549871 24.9404 0.548871 24.94 0.54787 24.94C0.546669 24.94 0.545868 24.9404 0.545468 24.9408C0.544867 24.9408 0.544667 24.9414 0.544667 24.9424C0.544667 24.9424 0.544867 24.9428 0.545468 24.9432C0.545868 24.9438 0.546669 24.944 0.54787 24.944H0.549471C0.552073 24.944 0.553875 24.9446 0.555076 24.9456C0.556077 24.9468 0.556677 24.9484 0.556677 24.9504C0.556677 24.9526 0.555877 24.9543 0.554275 24.9553C0.553074 24.9563 0.551073 24.9569 0.54787 24.9569C0.546269 24.9569 0.544867 24.9565 0.543867 24.9561C0.542666 24.9561 0.541465 24.9559 0.539863 24.9553V24.9504C0.540864 24.951 0.541865 24.9516 0.543066 24.952H0.54787H0.550272C0.550672 24.9516 0.551073 24.951 0.551073 24.9504C0.551073 24.95 0.550672 24.9496 0.550272 24.9496C0.549671 24.9492 0.548871 24.9486 0.54787 24.948H0.547069C0.543867 24.948 0.541665 24.9476 0.540664 24.9464C0.539463 24.9454 0.539062 24.944 0.539062 24.9424C0.539062 24.9404 0.539863 24.9388 0.541465 24.9376C0.543066 24.9366 0.545068 24.936 0.54787 24.936C0.548871 24.936 0.549872 24.9364 0.551073 24.9368L0.555877 24.9368Z" fill="black"/>
</g>
<g id="s">
<path id="Vector_28" d="M0.561035 24.9282H0.568241V24.9554H0.561035V24.9282Z" fill="black"/>
</g>
<g id="g_2">
<path id="Vector_29" d="M0.583651 24.9472C0.58245 24.9472 0.581449 24.9476 0.580448 24.948C0.579848 24.9486 0.579648 24.9492 0.579648 24.9496C0.579648 24.9508 0.579848 24.9516 0.580448 24.952H0.58205C0.583651 24.952 0.584652 24.9518 0.585252 24.9512C0.586253 24.9502 0.586854 24.9492 0.586854 24.948V24.9472H0.583651ZM0.593259 24.9448V24.9561H0.586854V24.9537C0.585653 24.9549 0.584652 24.9557 0.583651 24.9561C0.58245 24.9565 0.581249 24.9569 0.579648 24.9569C0.578046 24.9569 0.576445 24.9563 0.574844 24.9553C0.573643 24.9543 0.573242 24.9524 0.573242 24.9496C0.573242 24.9476 0.574043 24.9462 0.575644 24.9456C0.577246 24.9446 0.579648 24.944 0.58285 24.944H0.586853V24.9432C0.586853 24.9422 0.586253 24.9414 0.585252 24.9408C0.584652 24.9404 0.583651 24.94 0.582049 24.94C0.580448 24.94 0.579047 24.9404 0.578046 24.9408C0.576845 24.9408 0.575844 24.9412 0.574843 24.9416V24.9368H0.578847C0.580448 24.9364 0.581649 24.936 0.58285 24.936C0.586453 24.936 0.589256 24.9368 0.590857 24.9384C0.592458 24.9396 0.593259 24.9416 0.593259 24.9448Z" fill="black"/>
</g>
<g id="e_2">
<path id="Vector_30" d="M0.618962 24.944V24.9561H0.611756V24.9472V24.9432V24.9424C0.611756 24.942 0.611356 24.9416 0.610955 24.9416C0.610355 24.9412 0.609754 24.9408 0.609354 24.9408C0.608153 24.9408 0.607152 24.9414 0.606151 24.9424C0.605551 24.9436 0.60535 24.9448 0.60535 24.9464V24.9561H0.598145V24.9368H0.60535V24.9392C0.605751 24.9382 0.606551 24.9374 0.607752 24.9368C0.608753 24.9364 0.610154 24.936 0.611756 24.936C0.613757 24.936 0.615359 24.9368 0.61656 24.9384C0.618161 24.9396 0.618962 24.9414 0.618962 24.944Z" fill="black"/>
</g>
<g id="r">
<path id="Vector_31" d="M0.0152129 24.9648V24.9688H0.0112095C0.010609 24.9688 0.0100085 24.9692 0.00960815 24.9696V24.9712V24.9729H0.0152132V24.9769H0.00960815V24.9921H0.00320272V24.9769H0V24.9729H0.00320272V24.9712C0.00320272 24.9692 0.00360306 24.9676 0.00480407 24.9664C0.00580491 24.9654 0.00760643 24.9648 0.0104091 24.9648H0.0152129Z" fill="black"/>
</g>
<g id="c_3">
<path id="Vector_32" d="M0.0323025 24.9791C0.031702 24.9787 0.0311014 24.9783 0.0307011 24.9783C0.0301006 24.9779 0.0295001 24.9775 0.0290998 24.9775C0.0274984 24.9775 0.0260972 24.9781 0.0250964 24.9791C0.0244959 24.9803 0.0242957 24.9819 0.0242957 24.9839V24.9927H0.0170898V24.9735H0.0242957V24.9767C0.024696 24.9751 0.0254967 24.9741 0.0266977 24.9735C0.0276986 24.9731 0.0290998 24.9727 0.0307011 24.9727H0.0323025V24.9791Z" fill="black"/>
</g>
<g id="d_2">
<path id="Vector_33" d="M0.0450768 24.9767C0.0438758 24.9767 0.0428749 24.9773 0.0418741 24.9783C0.0412736 24.9795 0.0410734 24.9811 0.0410734 24.9831C0.0410734 24.9853 0.0412736 24.9869 0.0418741 24.9879C0.0428749 24.9885 0.0438758 24.9887 0.0450768 24.9887C0.0466782 24.9887 0.047679 24.9885 0.0482795 24.9879C0.0492803 24.9869 0.0498809 24.9853 0.0498809 24.9831C0.0498809 24.9811 0.0492803 24.9795 0.0482795 24.9783C0.047679 24.9773 0.0466782 24.9767 0.0450768 24.9767ZM0.0450768 24.9727C0.0486799 24.9727 0.0514822 24.9739 0.0530836 24.9759C0.0550853 24.9775 0.0562863 24.9799 0.0562863 24.9831C0.0562863 24.9863 0.0550853 24.9891 0.0530836 24.9911C0.0514822 24.9927 0.0486799 24.9935 0.0450768 24.9935C0.0418741 24.9935 0.0390716 24.9927 0.03707 24.9911C0.0354686 24.9891 0.034668 24.9863 0.034668 24.9831C0.034668 24.9799 0.0354686 24.9775 0.03707 24.9759C0.0390717 24.9739 0.0418741 24.9727 0.0450768 24.9727Z" fill="black"/>
</g>
<g id="q">
<path id="Vector_34" d="M0.0792749 24.9767C0.0796753 24.9757 0.0804759 24.9749 0.0816769 24.9743C0.0826778 24.9733 0.0836786 24.9727 0.0848796 24.9727C0.0868813 24.9727 0.0884827 24.9735 0.0896837 24.9751C0.0912851 24.9763 0.0920858 24.9781 0.0920858 24.9807V24.9927H0.0856803V24.9823V24.9815C0.0856803 24.9799 0.08528 24.9789 0.0848796 24.9783C0.0848796 24.9779 0.0842791 24.9775 0.0832783 24.9775C0.0820772 24.9775 0.0810764 24.9781 0.0800756 24.9791C0.0794751 24.9803 0.0792749 24.9815 0.0792749 24.9831V24.9927H0.0736699V24.9823C0.0736699 24.9803 0.0732696 24.9789 0.0728692 24.9783C0.0722687 24.9779 0.071468 24.9775 0.0704672 24.9775C0.0692661 24.9775 0.0684655 24.9781 0.0680651 24.9791C0.0674646 24.9803 0.0672644 24.9815 0.0672644 24.9831V24.9927H0.0600586V24.9735H0.0672644V24.9759C0.0676648 24.9749 0.0684655 24.9741 0.0696665 24.9735C0.0706673 24.9731 0.0716682 24.9727 0.0728692 24.9727C0.0744706 24.9727 0.0754714 24.9733 0.0760719 24.9743C0.0770728 24.9749 0.0780739 24.9757 0.0792749 24.9767Z" fill="black"/>
</g>
<g id="b_3">
<path id="Vector_35" d="M0.118495 24.9673V24.9729H0.1241V24.9769H0.118495V24.9857V24.9873H0.120097H0.1241V24.9921H0.118495C0.115693 24.9921 0.113891 24.9917 0.11289 24.9905C0.111689 24.9895 0.111289 24.9879 0.111289 24.9857V24.9769H0.108887V24.9729H0.111289V24.9673H0.118495Z" fill="black"/>
</g>
<g id="p">
<path id="Vector_36" d="M0.148747 24.9801V24.9921H0.141541V24.9833V24.9793V24.9785C0.141541 24.9781 0.141141 24.9777 0.14074 24.9777C0.14014 24.9773 0.139539 24.9769 0.139139 24.9769C0.137938 24.9769 0.136937 24.9775 0.135936 24.9785C0.135336 24.9797 0.135136 24.9809 0.135136 24.9825V24.9921H0.12793V24.9648H0.135136V24.9753C0.135536 24.9743 0.136337 24.9735 0.137538 24.9729C0.138538 24.9725 0.13994 24.972 0.141541 24.972C0.143543 24.972 0.145144 24.9729 0.146345 24.9745C0.147946 24.9757 0.148747 24.9775 0.148747 24.9801Z" fill="black"/>
</g>
<g id="a_6">
<path id="Vector_37" d="M0.17365 24.9823V24.9847H0.159238C0.159238 24.9863 0.159438 24.9875 0.160038 24.9879C0.161039 24.9885 0.162641 24.9887 0.164842 24.9887H0.168045C0.169647 24.9883 0.171248 24.9875 0.172849 24.9863V24.9919C0.171248 24.9919 0.169647 24.9923 0.168045 24.9927C0.166844 24.9931 0.165643 24.9935 0.164042 24.9935C0.160239 24.9935 0.157236 24.9927 0.155234 24.9911C0.153633 24.9891 0.152832 24.9863 0.152832 24.9831C0.152832 24.9799 0.153633 24.9775 0.155234 24.9759C0.157236 24.9739 0.160038 24.9727 0.163241 24.9727C0.166444 24.9727 0.168846 24.9739 0.170447 24.9759C0.172448 24.9775 0.17365 24.9797 0.17365 24.9823ZM0.167245 24.9807C0.167245 24.9797 0.166644 24.9789 0.165643 24.9783C0.165043 24.9773 0.164242 24.9767 0.163241 24.9767C0.16204 24.9767 0.161039 24.9773 0.160038 24.9783C0.159438 24.9789 0.159238 24.9797 0.159238 24.9807H0.167245Z" fill="black"/>
</g>
<g id="f_2">
<path id="Vector_38" d="M0.191895 24.9658H0.199101L0.208709 24.9842V24.9658H0.215915V24.9922H0.207908L0.1983 24.9746V24.9922H0.191895L0.191895 24.9658Z" fill="black"/>
</g>
<g id="d_3">
<path id="Vector_39" d="M0.231112 24.9767C0.229911 24.9767 0.22891 24.9773 0.227909 24.9783C0.227309 24.9795 0.227109 24.9811 0.227109 24.9831C0.227109 24.9853 0.227309 24.9869 0.227909 24.9879C0.22891 24.9885 0.229911 24.9887 0.231112 24.9887C0.232713 24.9887 0.233714 24.9885 0.234315 24.9879C0.235316 24.9869 0.235916 24.9853 0.235916 24.9831C0.235916 24.9811 0.235316 24.9795 0.234315 24.9783C0.233714 24.9773 0.232713 24.9767 0.231112 24.9767ZM0.231112 24.9727C0.234715 24.9727 0.237517 24.9739 0.239119 24.9759C0.24112 24.9775 0.242321 24.9799 0.242321 24.9831C0.242321 24.9863 0.24112 24.9891 0.239119 24.9911C0.237517 24.9927 0.234715 24.9935 0.231112 24.9935C0.227909 24.9935 0.225107 24.9927 0.223105 24.9911C0.221504 24.9891 0.220703 24.9863 0.220703 24.9831C0.220703 24.9799 0.221504 24.9775 0.223105 24.9759C0.225107 24.9739 0.227909 24.9727 0.231112 24.9727Z" fill="black"/>
</g>
<g id="h_2">
<path id="Vector_40" d="M0.246094 24.9848V24.9736H0.252499V24.9752V24.9792V24.9824V24.9856C0.2529 24.9862 0.2533 24.9868 0.2533 24.9872C0.2537 24.9878 0.254101 24.988 0.254101 24.988H0.255702C0.256703 24.988 0.257504 24.9878 0.258104 24.9872C0.259105 24.9862 0.259706 24.9846 0.259706 24.9824V24.9736H0.266111V24.9928H0.259706V24.9904C0.258505 24.9916 0.257504 24.9924 0.256503 24.9928C0.255902 24.9933 0.254901 24.9937 0.2533 24.9937C0.251098 24.9937 0.249297 24.9928 0.247695 24.9912C0.246494 24.9896 0.246094 24.9876 0.246094 24.9848Z" fill="black"/>
</g>
<g id="e_3">
<path id="Vector_41" d="M0.29279 24.9807V24.9927H0.285584V24.9839V24.9799V24.9791C0.285584 24.9787 0.285184 24.9783 0.284783 24.9783C0.284183 24.9779 0.283582 24.9775 0.283182 24.9775C0.281981 24.9775 0.28098 24.9781 0.279979 24.9791C0.279379 24.9803 0.279179 24.9815 0.279179 24.9831V24.9927H0.271973V24.9735H0.279179V24.9759C0.279579 24.9749 0.28038 24.9741 0.281581 24.9735C0.282581 24.9731 0.283983 24.9727 0.285584 24.9727C0.287586 24.9727 0.289187 24.9735 0.290388 24.9751C0.291989 24.9763 0.29279 24.9781 0.29279 24.9807Z" fill="black"/>
</g>
<g id="o">
<path id="Vector_42" d="M0.311523 24.9658H0.322733C0.325936 24.9658 0.328338 24.9666 0.329939 24.9682C0.331941 24.9698 0.333142 24.972 0.333142 24.9746C0.333142 24.9774 0.331941 24.9794 0.329939 24.981C0.328337 24.9826 0.325935 24.9834 0.322733 24.9834H0.31873V24.9922H0.311524L0.311523 24.9658ZM0.318729 24.9706V24.9786H0.321932C0.323533 24.9786 0.324534 24.9784 0.325135 24.9778C0.325535 24.9768 0.325935 24.9758 0.325935 24.9746C0.325935 24.9736 0.325535 24.9728 0.325135 24.9722C0.324534 24.9712 0.323533 24.9706 0.321932 24.9706H0.318729Z" fill="black"/>
</g>
<g id="c_4">
<path id="Vector_43" d="M0.352615 24.9791C0.352014 24.9787 0.351414 24.9783 0.351014 24.9783C0.350413 24.9779 0.349813 24.9775 0.349412 24.9775C0.347811 24.9775 0.34641 24.9781 0.345409 24.9791C0.344808 24.9803 0.344608 24.9819 0.344608 24.9839V24.9927H0.337402V24.9735H0.344608V24.9767C0.345009 24.9751 0.345809 24.9741 0.34701 24.9735C0.348011 24.9731 0.349412 24.9727 0.351014 24.9727H0.352615V24.9791Z" fill="black"/>
</g>
<g id="d_4">
<path id="Vector_44" d="M0.364413 24.9767C0.363212 24.9767 0.362211 24.9773 0.36121 24.9783C0.360609 24.9795 0.360409 24.9811 0.360409 24.9831C0.360409 24.9853 0.360609 24.9869 0.36121 24.9879C0.362211 24.9885 0.363212 24.9887 0.364413 24.9887C0.366014 24.9887 0.367015 24.9885 0.367615 24.9879C0.368616 24.9869 0.369217 24.9853 0.369217 24.9831C0.369217 24.9811 0.368616 24.9795 0.367615 24.9783C0.367015 24.9773 0.366014 24.9767 0.364413 24.9767ZM0.364413 24.9727C0.368016 24.9727 0.370818 24.9739 0.37242 24.9759C0.374421 24.9775 0.375622 24.9799 0.375622 24.9831C0.375622 24.9863 0.374421 24.9891 0.37242 24.9911C0.370818 24.9927 0.368016 24.9935 0.364413 24.9935C0.36121 24.9935 0.358408 24.9927 0.356406 24.9911C0.354805 24.9891 0.354004 24.9863 0.354004 24.9831C0.354004 24.9799 0.354805 24.9775 0.356406 24.9759C0.358408 24.9739 0.36121 24.9727 0.364413 24.9727Z" fill="black"/>
</g>
<g id="n">
<path id="Vector_45" d="M0.379668 24.9729H0.386874V24.9913C0.386874 24.9939 0.386073 24.9961 0.384472 24.9977C0.383271 24.9993 0.381469 25.0001 0.378867 25.0001H0.376465V24.9953H0.377266C0.378266 24.9953 0.378867 24.9949 0.378867 24.9945C0.379267 24.9945 0.379668 24.9933 0.379668 24.9913L0.379668 24.9729ZM0.379668 24.9648H0.386874V24.9696H0.379668V24.9648Z" fill="black"/>
</g>
<g id="a_7">
<path id="Vector_46" d="M0.412419 24.9823V24.9847H0.398007C0.398007 24.9863 0.398207 24.9875 0.398808 24.9879C0.399809 24.9885 0.40141 24.9887 0.403612 24.9887H0.406815C0.408416 24.9883 0.410017 24.9875 0.411619 24.9863V24.9919C0.410017 24.9919 0.408416 24.9923 0.406815 24.9927C0.405614 24.9931 0.404413 24.9935 0.402811 24.9935C0.399008 24.9935 0.396006 24.9927 0.394004 24.9911C0.392402 24.9891 0.391602 24.9863 0.391602 24.9831C0.391602 24.9799 0.392402 24.9775 0.394004 24.9759C0.396005 24.9739 0.398808 24.9727 0.40201 24.9727C0.405213 24.9727 0.407615 24.9739 0.409216 24.9759C0.411218 24.9775 0.412419 24.9797 0.412419 24.9823ZM0.406014 24.9807C0.406014 24.9797 0.405414 24.9789 0.404413 24.9783C0.403812 24.9773 0.403011 24.9767 0.402011 24.9767C0.40081 24.9767 0.399809 24.9773 0.398808 24.9783C0.398207 24.9789 0.398007 24.9797 0.398007 24.9807H0.406014Z" fill="black"/>
</g>
<g id="m">
<path id="Vector_47" d="M0.433631 24.9735V24.9791C0.43243 24.9787 0.431429 24.9781 0.430428 24.9775C0.429828 24.9771 0.429027 24.9767 0.428026 24.9767C0.426425 24.9767 0.425024 24.9775 0.424023 24.9791C0.422822 24.9803 0.422421 24.9815 0.422421 24.9831C0.422421 24.9847 0.422822 24.9861 0.424023 24.9871C0.425024 24.9883 0.426425 24.9887 0.428026 24.9887H0.430428C0.431429 24.9883 0.43243 24.9877 0.433631 24.9871V24.9919C0.43243 24.9925 0.431429 24.9927 0.430428 24.9927C0.429227 24.9931 0.428226 24.9935 0.427225 24.9935C0.423422 24.9935 0.42042 24.9927 0.418418 24.9911C0.416816 24.9891 0.416016 24.9863 0.416016 24.9831C0.416016 24.9799 0.416816 24.9775 0.418418 24.9759C0.420419 24.9739 0.423422 24.9727 0.427225 24.9727C0.428226 24.9727 0.429227 24.9731 0.430428 24.9735L0.433631 24.9735Z" fill="black"/>
</g>
<g id="b_4">
<path id="Vector_48" d="M0.446132 24.9673V24.9729H0.451737V24.9769H0.446132V24.9857V24.9873H0.447733H0.451737V24.9921H0.446132C0.443329 24.9921 0.441528 24.9917 0.440527 24.9905C0.439326 24.9895 0.438925 24.9879 0.438925 24.9857V24.9769H0.436523V24.9729H0.438925V24.9673H0.446132Z" fill="black"/>
</g>
</g>
</svg>
