<svg width="19" height="18" viewBox="0 0 19 18" fill="none" xmlns="http://www.w3.org/2000/svg">
<g id="heroicons-outline/eye-slash">
<path id="Vector" d="M3.48493 6.16693C2.7926 6.98537 2.26429 7.94701 1.95074 9.00111C2.91922 12.2535 5.93231 14.625 9.4993 14.625C10.2437 14.625 10.964 14.5217 11.6467 14.3287M5.1707 4.67072C6.41289 3.85169 7.90076 3.375 9.49996 3.375C13.067 3.375 16.08 5.74654 17.0485 8.99889C16.5146 10.7939 15.3579 12.3208 13.829 13.329M5.1707 4.67072L2.74998 2.25M5.1707 4.67072L7.90899 7.40901M13.829 13.329L16.25 15.75M13.829 13.329L11.091 10.591M11.091 10.591C11.4981 10.1838 11.75 9.62132 11.75 9C11.75 7.75736 10.7426 6.75 9.49998 6.75C8.87866 6.75 8.31616 7.00184 7.90899 7.40901M11.091 10.591L7.90899 7.40901" stroke="white" stroke-width="1.125" stroke-linecap="round" stroke-linejoin="round"/>
</g>
</svg>
