<svg width="31" height="31" viewBox="0 0 31 31" fill="none" xmlns="http://www.w3.org/2000/svg">
<g id="eye-open-svgrepo-com">
<g id="style=fill">
<g id="eye-open">
<path id="Subtract" fill-rule="evenodd" clip-rule="evenodd" d="M15.5003 5.12793C10.5869 5.12793 6.06195 7.676 2.94881 11.9782C2.22313 12.9781 1.89258 14.2625 1.89258 15.4936C1.89258 16.7243 2.223 18.0085 2.94835 19.0082C6.0615 23.3109 10.5867 25.8592 15.5003 25.8592C20.4137 25.8592 24.9386 23.3111 28.0518 19.0089C28.7775 18.009 29.108 16.7246 29.108 15.4936C29.108 14.2628 28.7776 12.9786 28.0522 11.9789C24.939 7.67625 20.4139 5.12793 15.5003 5.12793ZM12.5941 15.5001C12.5941 13.8919 13.8922 12.5938 15.5003 12.5938C17.1084 12.5938 18.4065 13.8919 18.4065 15.5001C18.4065 17.1082 17.1084 18.4063 15.5003 18.4063C13.8922 18.4063 12.5941 17.1082 12.5941 15.5001ZM15.5003 10.6563C12.8221 10.6563 10.6566 12.8219 10.6566 15.5001C10.6566 18.1782 12.8221 20.3438 15.5003 20.3438C18.1786 20.3438 20.344 18.1782 20.344 15.5001C20.344 12.8219 18.1786 10.6563 15.5003 10.6563Z" fill="black"/>
</g>
</g>
</g>
</svg>
