<svg width="40" height="40" viewBox="0 0 40 40" fill="none" xmlns="http://www.w3.org/2000/svg">
<g id="facebook-icon-logo-svgrepo-com 1" clip-path="url(#clip0_309_1051)">
<g id="SVGRepo_iconCarrier">
<path id="Vector" d="M37.7922 40C39.0113 40 39.9997 39.0114 39.9997 37.7924V2.20761C39.9997 0.988104 39.0111 0 37.7922 0H2.20761C0.988104 0 0 0.988254 0 2.20761V37.7922C0 39.0114 0.988104 39.9998 2.20761 39.9998L37.7922 40Z" fill="#485A96"/>
<path id="Vector_2" d="M27.5992 40.0002V24.51H32.7986L33.577 18.4732H27.5991V14.619C27.5991 12.8712 28.0844 11.6801 30.5908 11.6801L33.7874 11.6786V6.27935C33.2346 6.20591 31.3369 6.0415 29.1294 6.0415C24.5204 6.0415 21.365 8.85475 21.365 14.0213V18.4732H16.1523V24.51H21.365V40L27.5992 40.0002Z" fill="white"/>
</g>
</g>
<defs>
<clipPath id="clip0_309_1051">
<rect width="40" height="40" fill="white"/>
</clipPath>
</defs>
</svg>
