<svg width="20" height="20" viewBox="0 0 20 20" fill="none" xmlns="http://www.w3.org/2000/svg">
<g id="fi-rr-search" clip-path="url(#clip0_197_1131)">
<path id="Vector" d="M19.7557 18.5783L14.7815 13.6041C16.137 11.9463 16.8035 9.83087 16.643 7.69543C16.4826 5.55999 15.5075 3.5679 13.9195 2.13123C12.3315 0.694554 10.252 -0.0767949 8.11119 -0.0232684C5.9704 0.0302581 3.93207 0.904564 2.41783 2.41881C0.903588 3.93305 0.0292815 5.97137 -0.024245 8.11216C-0.0777715 10.253 0.693577 12.3324 2.13025 13.9205C3.56693 15.5085 5.55901 16.4836 7.69445 16.644C9.8299 16.8044 11.9453 16.138 13.6032 14.7825L18.5773 19.7566C18.7345 19.9084 18.945 19.9924 19.1635 19.9905C19.382 19.9886 19.591 19.901 19.7455 19.7465C19.9 19.592 19.9877 19.383 19.9895 19.1645C19.9914 18.946 19.9075 18.7355 19.7557 18.5783ZM8.33315 15.0008C7.01461 15.0008 5.72568 14.6098 4.62935 13.8773C3.53302 13.1447 2.67854 12.1035 2.17395 10.8854C1.66937 9.66718 1.53735 8.32673 1.79458 7.03353C2.05182 5.74032 2.68676 4.55243 3.61911 3.62008C4.55146 2.68773 5.73934 2.05279 7.03255 1.79556C8.32576 1.53832 9.6662 1.67035 10.8844 2.17493C12.1025 2.67952 13.1437 3.534 13.8763 4.63033C14.6088 5.72665 14.9998 7.01559 14.9998 8.33413C14.9978 10.1016 14.2948 11.7962 13.045 13.046C11.7952 14.2958 10.1007 14.9988 8.33315 15.0008Z" fill="#1E1C1C"/>
</g>
<defs>
<clipPath id="clip0_197_1131">
<rect width="20" height="20" fill="white"/>
</clipPath>
</defs>
</svg>
