<svg width="28" height="28" viewBox="0 0 28 28" fill="none" xmlns="http://www.w3.org/2000/svg">
<g id="fi-rr-settings" clip-path="url(#clip0_197_1142)">
<path id="Vector" d="M14.0002 9.33398C13.0772 9.33398 12.1749 9.60768 11.4075 10.1205C10.6401 10.6332 10.0419 11.3621 9.68873 12.2148C9.33552 13.0675 9.2431 14.0058 9.42317 14.9111C9.60323 15.8163 10.0477 16.6478 10.7003 17.3005C11.353 17.9531 12.1845 18.3976 13.0897 18.5777C13.995 18.7577 14.9333 18.6653 15.786 18.3121C16.6387 17.9589 17.3676 17.3607 17.8804 16.5933C18.3931 15.8259 18.6668 14.9236 18.6668 14.0007C18.6668 12.763 18.1752 11.576 17.3 10.7008C16.4248 9.82565 15.2378 9.33398 14.0002 9.33398ZM14.0002 16.334C13.5387 16.334 13.0875 16.1971 12.7038 15.9407C12.3201 15.6844 12.0211 15.3199 11.8444 14.8936C11.6678 14.4672 11.6216 13.9981 11.7117 13.5454C11.8017 13.0928 12.0239 12.6771 12.3502 12.3507C12.6766 12.0244 13.0923 11.8022 13.545 11.7122C13.9976 11.6221 14.4667 11.6683 14.8931 11.8449C15.3195 12.0215 15.6839 12.3206 15.9403 12.7043C16.1967 13.088 16.3335 13.5392 16.3335 14.0007C16.3335 14.6195 16.0877 15.213 15.6501 15.6506C15.2125 16.0882 14.619 16.334 14.0002 16.334Z" fill="#808080"/>
<path id="Vector_2" d="M24.8429 16.2167L24.3249 15.918C24.5581 14.6492 24.5581 13.3485 24.3249 12.0797L24.8429 11.781C25.2413 11.5512 25.5905 11.2452 25.8705 10.8804C26.1506 10.5156 26.3561 10.0993 26.4753 9.65512C26.5944 9.21095 26.6249 8.74765 26.5651 8.29168C26.5052 7.83572 26.3561 7.39601 26.1263 6.99767C25.8965 6.59932 25.5904 6.25015 25.2257 5.97007C24.8609 5.69 24.4446 5.48451 24.0004 5.36534C23.5562 5.24617 23.0929 5.21566 22.6369 5.27554C22.181 5.33542 21.7413 5.48452 21.3429 5.71433L20.8238 6.01417C19.8432 5.1764 18.7164 4.52696 17.4999 4.0985V3.5C17.4999 2.57174 17.1312 1.6815 16.4748 1.02513C15.8184 0.368749 14.9282 0 13.9999 0C13.0717 0 12.1814 0.368749 11.5251 1.02513C10.8687 1.6815 10.4999 2.57174 10.4999 3.5V4.0985C9.28355 4.52849 8.15708 5.17953 7.17726 6.01883L6.65576 5.71667C5.85127 5.25254 4.89536 5.127 3.99831 5.36767C3.10126 5.60834 2.33656 6.19551 1.87243 7C1.4083 7.80449 1.28276 8.7604 1.52343 9.65745C1.76411 10.5545 2.35127 11.3192 3.15576 11.7833L3.67376 12.082C3.44056 13.3508 3.44056 14.6515 3.67376 15.9203L3.15576 16.219C2.35127 16.6831 1.76411 17.4478 1.52343 18.3449C1.28276 19.2419 1.4083 20.1978 1.87243 21.0023C2.33656 21.8068 3.10126 22.394 3.99831 22.6347C4.89536 22.8753 5.85127 22.7498 6.65576 22.2857L7.17493 21.9858C8.15582 22.8237 9.28307 23.4732 10.4999 23.9015V24.5C10.4999 25.4283 10.8687 26.3185 11.5251 26.9749C12.1814 27.6313 13.0717 28 13.9999 28C14.9282 28 15.8184 27.6313 16.4748 26.9749C17.1312 26.3185 17.4999 25.4283 17.4999 24.5V23.9015C18.7163 23.4715 19.8428 22.8205 20.8226 21.9812L21.3441 22.2822C22.1486 22.7463 23.1045 22.8718 24.0015 22.6312C24.8986 22.3905 25.6633 21.8033 26.1274 20.9988C26.5916 20.1943 26.7171 19.2384 26.4764 18.3414C26.2358 17.4443 25.6486 16.6796 24.8441 16.2155L24.8429 16.2167ZM21.8703 11.8113C22.2653 13.2429 22.2653 14.7548 21.8703 16.1863C21.8013 16.4355 21.817 16.7005 21.915 16.9398C22.013 17.179 22.1877 17.379 22.4116 17.5082L23.6763 18.2385C23.9444 18.3932 24.14 18.6481 24.2202 18.9471C24.3004 19.246 24.2586 19.5646 24.1038 19.8328C23.9491 20.1009 23.6943 20.2965 23.3953 20.3767C23.0963 20.4569 22.7777 20.415 22.5096 20.2603L21.2426 19.5277C21.0185 19.3979 20.7575 19.3463 20.5009 19.3812C20.2442 19.416 20.0065 19.5353 19.8251 19.7202C18.7867 20.7803 17.4784 21.5366 16.0416 21.9077C15.7908 21.9721 15.5686 22.1182 15.41 22.3229C15.2513 22.5276 15.1653 22.7792 15.1654 23.0382V24.5C15.1654 24.8094 15.0425 25.1062 14.8237 25.325C14.6049 25.5438 14.3082 25.6667 13.9988 25.6667C13.6893 25.6667 13.3926 25.5438 13.1738 25.325C12.955 25.1062 12.8321 24.8094 12.8321 24.5V23.0393C12.8322 22.7804 12.7462 22.5287 12.5876 22.3241C12.4289 22.1194 12.2067 21.9733 11.9559 21.9088C10.519 21.5363 9.21114 20.7783 8.17359 19.7167C7.99221 19.5318 7.75446 19.4125 7.49781 19.3777C7.24116 19.3428 6.98022 19.3944 6.75609 19.5242L5.49143 20.2557C5.3587 20.3335 5.21188 20.3843 5.05944 20.4051C4.907 20.426 4.75194 20.4164 4.60319 20.3771C4.45444 20.3378 4.31494 20.2694 4.19272 20.176C4.0705 20.0825 3.96797 19.9658 3.89104 19.8326C3.81411 19.6993 3.76429 19.5522 3.74446 19.3996C3.72463 19.247 3.73517 19.092 3.77548 18.9435C3.8158 18.795 3.88508 18.656 3.97935 18.5344C4.07362 18.4128 4.19101 18.311 4.32476 18.235L5.58943 17.5047C5.81337 17.3755 5.98805 17.1755 6.08603 16.9363C6.18401 16.697 6.19975 16.432 6.13076 16.1828C5.73568 14.7513 5.73568 13.2394 6.13076 11.8078C6.1985 11.5592 6.18202 11.2951 6.08388 11.0568C5.98574 10.8186 5.81146 10.6195 5.58826 10.4907L4.32359 9.76033C4.05548 9.60562 3.85981 9.35074 3.77962 9.05176C3.69944 8.75278 3.7413 8.43419 3.89601 8.16608C4.05072 7.89797 4.3056 7.7023 4.60458 7.62211C4.90356 7.54192 5.22215 7.58379 5.49026 7.7385L6.75726 8.47117C6.98077 8.60127 7.24117 8.65341 7.49754 8.61941C7.75391 8.58541 7.99172 8.46719 8.17359 8.28333C9.21203 7.22323 10.5203 6.46686 11.9571 6.09583C12.2087 6.03116 12.4315 5.88438 12.5902 5.67875C12.7489 5.47313 12.8344 5.22042 12.8333 4.96067V3.5C12.8333 3.19058 12.9562 2.89383 13.175 2.67504C13.3938 2.45625 13.6905 2.33333 13.9999 2.33333C14.3093 2.33333 14.6061 2.45625 14.8249 2.67504C15.0437 2.89383 15.1666 3.19058 15.1666 3.5V4.96067C15.1665 5.21962 15.2525 5.47125 15.4111 5.67593C15.5698 5.8806 15.792 6.02669 16.0428 6.09117C17.4801 6.46351 18.7884 7.22153 19.8263 8.28333C20.0076 8.46821 20.2454 8.58747 20.502 8.62233C20.7587 8.65718 21.0196 8.60564 21.2438 8.47583L22.5084 7.74433C22.6412 7.66652 22.788 7.61573 22.9404 7.59489C23.0929 7.57404 23.2479 7.58356 23.3967 7.62288C23.5454 7.66221 23.6849 7.73057 23.8071 7.82403C23.9294 7.91749 24.0319 8.03421 24.1088 8.16745C24.1858 8.3007 24.2356 8.44784 24.2554 8.60042C24.2752 8.753 24.2647 8.90799 24.2244 9.05647C24.1841 9.20496 24.1148 9.344 24.0205 9.4656C23.9262 9.5872 23.8088 9.68895 23.6751 9.765L22.4104 10.4953C22.1876 10.6245 22.0139 10.8237 21.9162 11.062C21.8184 11.3002 21.8023 11.5641 21.8703 11.8125V11.8113Z" fill="#808080"/>
</g>
<defs>
<clipPath id="clip0_197_1142">
<rect width="28" height="28" fill="white"/>
</clipPath>
</defs>
</svg>
