<svg width="21" height="21" viewBox="0 0 21 21" fill="none" xmlns="http://www.w3.org/2000/svg">
<g id="fi-rr-bell" clip-path="url(#clip0_197_1120)">
<path id="Vector" d="M19.2956 11.8851L17.7122 6.1884C17.2481 4.51951 16.2395 3.05364 14.8467 2.02379C13.4539 0.993945 11.7567 0.459223 10.0251 0.504623C8.29351 0.550023 6.62675 1.17294 5.28979 2.27436C3.95284 3.37578 3.02241 4.89249 2.64641 6.5834L1.42057 12.0959C1.28517 12.705 1.2883 13.3368 1.42973 13.9445C1.57117 14.5522 1.84729 15.1205 2.23773 15.6072C2.62816 16.0939 3.12292 16.4868 3.6855 16.7567C4.24808 17.0266 4.86409 17.1668 5.48807 17.1667H6.41641C6.60767 18.1086 7.11868 18.9555 7.86286 19.5637C8.60704 20.172 9.53861 20.5042 10.4997 20.5042C11.4609 20.5042 12.3924 20.172 13.1366 19.5637C13.8808 18.9555 14.3918 18.1086 14.5831 17.1667H15.2814C15.9237 17.1668 16.5574 17.0183 17.1329 16.7329C17.7083 16.4476 18.21 16.033 18.5988 15.5216C18.9875 15.0103 19.2527 14.4159 19.3737 13.7851C19.4948 13.1543 19.4683 12.504 19.2964 11.8851H19.2956ZM10.4997 18.8334C9.98452 18.8313 9.48255 18.67 9.06249 18.3717C8.64243 18.0733 8.32481 17.6525 8.15307 17.1667H12.8464C12.6747 17.6525 12.357 18.0733 11.937 18.3717C11.5169 18.67 11.015 18.8313 10.4997 18.8334ZM17.2714 14.5126C17.0392 14.8206 16.7383 15.0703 16.3927 15.2417C16.0472 15.4131 15.6663 15.5016 15.2806 15.5001H5.48807C5.11373 15.5 4.74417 15.4159 4.40669 15.2539C4.06921 15.0919 3.77241 14.8562 3.53821 14.5641C3.30401 14.2721 3.13837 13.9312 3.05354 13.5666C2.96871 13.202 2.96684 12.823 3.04807 12.4576L4.27307 6.94423C4.56837 5.61607 5.29916 4.42474 6.34929 3.55961C7.39941 2.69448 8.70859 2.20521 10.0687 2.16958C11.4288 2.13395 12.7618 2.554 13.8558 3.36296C14.9498 4.17192 15.742 5.32336 16.1064 6.63423L17.6897 12.3309C17.7944 12.702 17.811 13.0925 17.7384 13.4712C17.6658 13.8499 17.5059 14.2064 17.2714 14.5126Z" fill="#1E1C1C"/>
</g>
<defs>
<clipPath id="clip0_197_1120">
<rect width="20" height="20" fill="white" transform="translate(0.5 0.5)"/>
</clipPath>
</defs>
</svg>
