<svg width="25" height="26" viewBox="0 0 25 26" fill="none" xmlns="http://www.w3.org/2000/svg">
<g id="filter-svgrepo-com 1">
<path id="Vector" opacity="0.4" d="M11.4582 18.7292H4.1665" stroke="#130F26" stroke-width="1.5" stroke-linecap="round" stroke-linejoin="round"/>
<path id="Vector_2" fill-rule="evenodd" clip-rule="evenodd" d="M20.8333 18.7292C20.8333 20.1674 19.6674 21.3333 18.2292 21.3333C16.7909 21.3333 15.625 20.1674 15.625 18.7292C15.625 17.2899 16.7909 16.125 18.2292 16.125C19.6674 16.125 20.8333 17.2899 20.8333 18.7292Z" stroke="#130F26" stroke-width="1.5" stroke-linecap="round" stroke-linejoin="round"/>
<path id="Vector_3" opacity="0.4" d="M13.5415 7.27075H20.8332" stroke="#130F26" stroke-width="1.5" stroke-linecap="round" stroke-linejoin="round"/>
<path id="Vector_4" fill-rule="evenodd" clip-rule="evenodd" d="M4.1665 7.27091C4.1665 8.71023 5.33242 9.87508 6.77067 9.87508C8.20892 9.87508 9.37484 8.71023 9.37484 7.27091C9.37484 5.83266 8.20892 4.66675 6.77067 4.66675C5.33242 4.66675 4.1665 5.83266 4.1665 7.27091Z" stroke="#130F26" stroke-width="1.5" stroke-linecap="round" stroke-linejoin="round"/>
</g>
</svg>
