<svg width="29" height="28" viewBox="0 0 29 28" fill="none" xmlns="http://www.w3.org/2000/svg">
<g id="heart-svgrepo-com 3" clip-path="url(#clip0_424_2268)">
<g id="SVGRepo_iconCarrier">
<path id="Vector" fill-rule="evenodd" clip-rule="evenodd" d="M25.0152 13.2805L14.3291 23.3045L3.66604 13.3035C1.41123 11.0158 1.41123 7.29341 3.66604 5.00564C4.75311 3.90376 6.19923 3.296 7.73923 3.296H7.74087C9.27923 3.296 10.7254 3.90376 11.8108 5.00564L11.8124 5.00729C12.9028 6.11246 13.5056 7.58657 13.5056 9.15457H15.1526C15.1526 7.58657 15.7538 6.11246 16.8458 5.00564C17.9312 3.90376 19.3773 3.296 20.9173 3.296H20.919C22.4573 3.296 23.9051 3.90376 24.9905 5.00564C27.2453 7.29341 27.2453 11.0158 25.0152 13.2805ZM26.1649 3.84941C24.7665 2.42964 22.902 1.64893 20.919 1.64893H20.9173C18.9326 1.64893 17.0698 2.42964 15.6731 3.84776C15.1246 4.40281 14.675 5.0287 14.3291 5.70564C13.9832 5.02869 13.5319 4.40281 12.9851 3.84941C11.5884 2.42964 9.72559 1.64893 7.74087 1.64893H7.73923C5.75617 1.64893 3.8917 2.42964 2.4917 3.84941C-0.390662 6.77622 -0.390662 11.5346 2.51641 14.4812L14.3291 25.5626L26.1649 14.4581C29.0472 11.5346 29.0472 6.77622 26.1649 3.84941Z" fill="#808080"/>
</g>
</g>
<defs>
<clipPath id="clip0_424_2268">
<rect width="28" height="28" fill="white" transform="translate(0.333496)"/>
</clipPath>
</defs>
</svg>
