<svg width="29" height="28" viewBox="0 0 29 28" fill="none" xmlns="http://www.w3.org/2000/svg">
<g id="heart-svgrepo-com 1" clip-path="url(#clip0_310_1114)">
<g id="Group">
<path id="Vector" d="M21.2672 2.34424C18.8531 2.34424 16.7204 3.55623 15.446 5.40298C15.446 5.40298 15.0157 6.04692 14.3332 6.04692C13.6513 6.04692 13.221 5.40298 13.221 5.40298C11.9459 3.55623 9.81455 2.34424 7.39976 2.34424C3.49691 2.34424 0.333496 5.50765 0.333496 9.41172C0.333496 10.3336 0.514682 11.2107 0.835431 12.0181C2.81501 18.165 11.6687 25.3916 14.3332 25.6554C16.9983 25.3916 25.8508 18.165 27.8316 12.0181C28.1523 11.2113 28.3335 10.3336 28.3335 9.41172C28.3335 5.50765 25.1701 2.34424 21.2672 2.34424Z" fill="#EE1D52"/>
</g>
</g>
<defs>
<clipPath id="clip0_310_1114">
<rect width="28" height="28" fill="white" transform="translate(0.333496)"/>
</clipPath>
</defs>
</svg>
