<svg width="28" height="28" viewBox="0 0 28 28" fill="none" xmlns="http://www.w3.org/2000/svg">
<g id="home-svgrepo-com">
<g id="SVGRepo_iconCarrier">
<path id="Vector" d="M24.3357 9.76466L16.2507 3.30133C15.0024 2.29799 12.984 2.29799 11.7474 3.28966L3.66234 9.76466C2.75234 10.488 2.16901 12.0163 2.36734 13.1596L3.91901 22.4463C4.19901 24.1029 5.78567 25.4446 7.46567 25.4446H20.5324C22.2007 25.4446 23.799 24.0913 24.079 22.4463L25.6307 13.1596C25.8174 12.0163 25.234 10.488 24.3357 9.76466ZM13.999 18.0829C12.389 18.0829 11.0823 16.7763 11.0823 15.1663C11.0823 13.5563 12.389 12.2496 13.999 12.2496C15.609 12.2496 16.9157 13.5563 16.9157 15.1663C16.9157 16.7763 15.609 18.0829 13.999 18.0829Z" fill="#0452A1"/>
</g>
</g>
</svg>
