<svg width="28" height="26" viewBox="0 0 28 26" fill="none" xmlns="http://www.w3.org/2000/svg">
<path id="Vector" d="M27.2058 10.6074L27.2058 10.6074C27.4256 10.7743 27.4793 10.8924 27.4929 10.9357C27.5054 10.9753 27.4982 10.9959 27.495 11.0041C27.4921 11.0118 27.4804 11.0407 27.4303 11.073C27.3763 11.1077 27.242 11.1686 26.9546 11.1686H25.2766H24.7766V11.6686V23.9151C24.7766 24.4816 24.2721 25 23.5809 25H18.3665C17.6561 25 17.1284 24.4556 17.1284 23.9151V18.893C17.1284 18.1733 16.5529 17.5706 15.8229 17.5706H12.2619C11.8902 17.5706 11.5494 17.7253 11.3028 17.9531C11.0572 18.1799 10.8716 18.5118 10.8716 18.893V23.9151C10.8716 24.5079 10.3894 25 9.71829 25H4.41915C3.72789 25 3.22343 24.4816 3.22343 23.9151V11.6686V11.1686H2.72343H1.04542C0.757995 11.1686 0.623716 11.1077 0.569661 11.0729C0.519182 11.0405 0.507713 11.0114 0.50497 11.0042L0.504954 11.0041C0.501798 10.9959 0.494647 10.9753 0.507067 10.9357C0.520674 10.8923 0.574421 10.7743 0.7942 10.6073L0.79429 10.6073L13.0486 1.29483C13.2887 1.11242 13.6236 1 13.997 1C14.3721 1 14.7091 1.11314 14.9513 1.29703C14.9513 1.29705 14.9513 1.29706 14.9513 1.29708L19.6326 4.8536L20.435 5.46327V4.45547V3.2907C20.435 3.11998 20.596 2.9213 20.8677 2.9213H23.0721C23.3439 2.9213 23.5048 3.11998 23.5048 3.2907V7.54754V7.7956L23.7023 7.94567L27.2058 10.6074Z" stroke="black"/>
</svg>
