<svg width="40" height="40" viewBox="0 0 40 40" fill="none" xmlns="http://www.w3.org/2000/svg">
<g id="linkedin-svgrepo-com 1">
<g id="SVGRepo_iconCarrier">
<path id="Vector" d="M30.5625 30.5625H26.1175V23.6C26.1175 21.94 26.0875 19.8025 23.805 19.8025C21.49 19.8025 21.135 21.6125 21.135 23.4775V30.5625H16.69V16.245H20.9575V18.2025H21.0175C21.8875 16.7175 23.5075 15.8275 25.2275 15.89C29.7325 15.89 30.565 18.8525 30.565 22.71L30.5625 30.56V30.5625ZM11.675 14.2875C10.9922 14.2843 10.3382 14.0117 9.85517 13.5291C9.37211 13.0465 9.09894 12.3928 9.095 11.71C9.095 10.295 10.26 9.13004 11.675 9.13004C13.09 9.13004 14.2525 10.295 14.255 11.71C14.255 13.125 13.09 14.2875 11.675 14.2875ZM13.8975 30.5625H9.4475V16.245H13.8975V30.5625ZM32.775 5.00004H7.2125C6.63288 4.99667 6.07534 5.22219 5.66106 5.62758C5.24677 6.03297 5.00921 6.58548 5 7.16504V32.835C5.00921 33.4146 5.24677 33.9671 5.66106 34.3725C6.07534 34.7779 6.63288 35.0034 7.2125 35H32.7775C33.3585 35.0047 33.9178 34.78 34.334 34.3746C34.7501 33.9692 34.9895 33.4159 35 32.835V7.16254C34.9895 6.5821 34.75 6.02936 34.3337 5.62476C33.9173 5.22016 33.358 4.9965 32.7775 5.00254L32.775 5.00004Z" fill="#0A66C2"/>
</g>
</g>
</svg>
