<svg width="15" height="16" viewBox="0 0 15 16" fill="none" xmlns="http://www.w3.org/2000/svg">
<g id="style=fill">
<g id="location">
<path id="Subtract" fill-rule="evenodd" clip-rule="evenodd" d="M4.9795 14.7596L5.02394 14.7989L5.02741 14.802C5.84164 15.5183 6.63109 16.0093 7.52401 15.9999C8.41288 15.9905 9.1991 15.4867 10.0128 14.7593C11.1281 13.7672 12.5711 12.429 13.6136 10.8414C14.6601 9.24781 15.3354 7.35345 14.8273 5.27423C13.1104 -1.75271 1.89852 -1.76095 0.1727 5.26676C-0.321023 7.28705 0.302734 9.13511 1.29745 10.7013C2.28843 12.2618 3.67502 13.5866 4.78706 14.5872C4.85185 14.6455 4.9158 14.7027 4.97874 14.7589L4.9795 14.7596ZM7.50001 3.72159C6.04472 3.72159 4.86494 4.80472 4.86494 6.14081C4.86494 7.47687 6.04472 8.56001 7.50001 8.56001C8.9553 8.56001 10.1351 7.47687 10.1351 6.14081C10.1351 4.80472 8.9553 3.72159 7.50001 3.72159Z" fill="#DF3424"/>
</g>
</g>
</svg>
