<svg width="31" height="30" viewBox="0 0 31 30" fill="none" xmlns="http://www.w3.org/2000/svg">
<g id="menu-svgrepo-com 1" clip-path="url(#clip0_198_1275)">
<g id="XMLID_2_">
<path id="XMLID_4_" d="M11.2143 0H2.64286C1.45943 0 0.5 0.959428 0.5 2.14286V10.7143C0.5 11.8977 1.45943 12.8571 2.64286 12.8571H11.2143C12.3977 12.8571 13.3571 11.8977 13.3571 10.7143V2.14286C13.3571 0.959428 12.3977 0 11.2143 0Z" fill="black"/>
<path id="XMLID_6_" d="M11.2143 17.1431H2.64286C1.45943 17.1431 0.5 18.1025 0.5 19.2859V27.8574C0.5 29.0408 1.45943 30.0002 2.64286 30.0002H11.2143C12.3977 30.0002 13.3571 29.0408 13.3571 27.8574V19.2859C13.3571 18.1025 12.3977 17.1431 11.2143 17.1431Z" fill="black"/>
<path id="XMLID_8_" d="M28.3574 0H19.7859C18.6025 0 17.6431 0.959428 17.6431 2.14286V10.7143C17.6431 11.8977 18.6025 12.8571 19.7859 12.8571H28.3574C29.5408 12.8571 30.5002 11.8977 30.5002 10.7143V2.14286C30.5002 0.959428 29.5408 0 28.3574 0Z" fill="black"/>
<path id="XMLID_10_" d="M28.3574 17.1431H19.7859C18.6025 17.1431 17.6431 18.1025 17.6431 19.2859V27.8574C17.6431 29.0408 18.6025 30.0002 19.7859 30.0002H28.3574C29.5408 30.0002 30.5002 29.0408 30.5002 27.8574V19.2859C30.5002 18.1025 29.5408 17.1431 28.3574 17.1431Z" fill="black"/>
</g>
</g>
<defs>
<clipPath id="clip0_198_1275">
<rect width="30" height="30" fill="white" transform="translate(0.5)"/>
</clipPath>
</defs>
</svg>
