<svg width="31" height="30" viewBox="0 0 31 30" fill="none" xmlns="http://www.w3.org/2000/svg">
<g id="menu-svgrepo-com 2" clip-path="url(#clip0_197_1145)">
<g id="Group">
<g id="Group_2">
<g id="Group_3">
<path id="Vector" d="M28.7188 2.49756H10.9031C9.92106 2.49756 9.12207 3.29655 9.12207 4.27857V6.86059C9.12207 7.84261 9.92106 8.6416 10.9031 8.6416H28.7188C29.7009 8.6416 30.4998 7.84261 30.4998 6.86059V4.27857C30.4998 3.29655 29.7009 2.49756 28.7188 2.49756Z" fill="black"/>
<path id="Vector_2" d="M28.7188 11.9277H10.9031C9.92106 11.9277 9.12207 12.7267 9.12207 13.7087V16.2908C9.12207 17.2728 9.92106 18.0718 10.9031 18.0718H28.7188C29.7009 18.0718 30.4998 17.2728 30.4998 16.2908V13.7087C30.4998 12.7267 29.7009 11.9277 28.7188 11.9277Z" fill="black"/>
<path id="Vector_3" d="M28.7188 21.3584H10.9031C9.92106 21.3584 9.12207 22.1574 9.12207 23.1395V25.7214C9.12207 26.7034 9.92106 27.5024 10.9031 27.5024H28.7188C29.7009 27.5024 30.4998 26.7034 30.4998 25.7214V23.1395C30.4998 22.1574 29.7009 21.3584 28.7188 21.3584Z" fill="black"/>
<path id="Vector_4" d="M5.14293 2.49756H2.28101C1.29899 2.49756 0.5 3.29655 0.5 4.27857V6.86059C0.5 7.84261 1.29899 8.6416 2.28101 8.6416H5.14293C6.12495 8.6416 6.92394 7.84261 6.92394 6.86059V4.27857C6.92394 3.29655 6.12495 2.49756 5.14293 2.49756Z" fill="black"/>
<path id="Vector_5" d="M5.14293 11.9277H2.28101C1.29899 11.9277 0.5 12.7267 0.5 13.7087V16.2908C0.5 17.2728 1.29899 18.0718 2.28101 18.0718H5.14293C6.12495 18.0718 6.92394 17.2728 6.92394 16.2908V13.7087C6.92394 12.7267 6.12495 11.9277 5.14293 11.9277Z" fill="black"/>
<path id="Vector_6" d="M5.14293 21.3584H2.28101C1.29899 21.3584 0.5 22.1574 0.5 23.1395V25.7214C0.5 26.7034 1.29899 27.5024 2.28101 27.5024H5.14293C6.12495 27.5024 6.92394 26.7034 6.92394 25.7214V23.1395C6.92394 22.1574 6.12495 21.3584 5.14293 21.3584Z" fill="black"/>
</g>
</g>
</g>
</g>
<defs>
<clipPath id="clip0_197_1145">
<rect width="30" height="30" fill="white" transform="translate(0.5)"/>
</clipPath>
</defs>
</svg>
