<svg width="35" height="35" viewBox="0 0 35 35" fill="none" xmlns="http://www.w3.org/2000/svg">
<g id="message-favorite-svgrepo-com (1) 1" clip-path="url(#clip0_295_942)">
<g id="SVGRepo_iconCarrier">
<path id="Vector" d="M32.0832 11.6665V18.9582C32.0832 24.7915 29.1665 27.7082 23.3332 27.7082H22.604C22.1519 27.7082 21.7144 27.9269 21.4373 28.2915L19.2498 31.2082C18.2873 32.4915 16.7123 32.4915 15.7498 31.2082L13.5623 28.2915C13.329 27.9707 12.7894 27.7082 12.3957 27.7082H11.6665C5.83317 27.7082 2.9165 26.2498 2.9165 18.9582V11.6665C2.9165 5.83317 5.83317 2.9165 11.6665 2.9165H17.4998" stroke="#292D32" stroke-width="4" stroke-miterlimit="10" stroke-linecap="round" stroke-linejoin="round"/>
<path id="Vector_2" opacity="0.4" d="M22.166 6.73764C21.6847 5.29389 22.2535 3.51472 23.8285 3.01889C24.6451 2.77097 25.666 2.97514 26.2493 3.74805C26.8035 2.94597 27.8535 2.77097 28.6701 3.01889C30.2451 3.50014 30.8139 5.29389 30.3326 6.73764C29.5889 9.02722 26.9785 10.2085 26.2493 10.2085C25.5201 10.2085 22.9389 9.0418 22.166 6.73764Z" stroke="#292D32" stroke-width="4" stroke-linecap="round" stroke-linejoin="round"/>
<path id="Vector_3" opacity="0.4" d="M23.3281 16.0415H23.3411" stroke="#292D32" stroke-width="5.33333" stroke-linecap="round" stroke-linejoin="round"/>
<path id="Vector_4" opacity="0.4" d="M17.4917 16.0415H17.5048" stroke="#292D32" stroke-width="5.33333" stroke-linecap="round" stroke-linejoin="round"/>
<path id="Vector_5" opacity="0.4" d="M11.6587 16.0415H11.6718" stroke="#292D32" stroke-width="5.33333" stroke-linecap="round" stroke-linejoin="round"/>
</g>
</g>
<defs>
<clipPath id="clip0_295_942">
<rect width="35" height="35" fill="white"/>
</clipPath>
</defs>
</svg>
