<svg width="31" height="31" viewBox="0 0 31 31" fill="none" xmlns="http://www.w3.org/2000/svg">
<g id="password-protection-privacy-access-verification-code-svgrepo-com 1">
<g id="Password">
<path id="Vector" d="M23.6738 14.1648H7.32617C6.60421 14.1669 5.91242 14.4546 5.40192 14.9651C4.89141 15.4757 4.60368 16.1674 4.60156 16.8894V26.698C4.60368 27.42 4.89141 28.1117 5.40192 28.6223C5.91242 29.1328 6.60421 29.4205 7.32617 29.4226H23.6738C24.3958 29.4205 25.0876 29.1328 25.5981 28.6223C26.1086 28.1117 26.3963 27.42 26.3984 26.698V16.8894C26.3963 16.1674 26.1086 15.4757 25.5981 14.9651C25.0876 14.4546 24.3958 14.1669 23.6738 14.1648ZM11.1481 22.3648C11.2164 22.404 11.2763 22.4563 11.3244 22.5188C11.3724 22.5812 11.4077 22.6525 11.4282 22.7286C11.4487 22.8047 11.4539 22.8841 11.4437 22.9622C11.4334 23.0403 11.4079 23.1156 11.3685 23.1839C11.3291 23.2521 11.2766 23.3119 11.2141 23.3598C11.1515 23.4078 11.0802 23.4429 11.004 23.4632C10.9279 23.4835 10.8485 23.4886 10.7704 23.4781C10.6923 23.4677 10.617 23.442 10.5489 23.4024L9.56015 22.8316V23.9734C9.56015 24.1324 9.49702 24.2848 9.38464 24.3971C9.27227 24.5095 9.11986 24.5726 8.96094 24.5726C8.80203 24.5726 8.64962 24.5095 8.53724 24.3971C8.42487 24.2848 8.36174 24.1324 8.36174 23.9734V22.8316L7.37301 23.4024C7.23543 23.4815 7.07211 23.5027 6.9189 23.4615C6.76568 23.4203 6.63508 23.3199 6.55573 23.1825C6.47639 23.0451 6.4548 22.8819 6.49568 22.7285C6.53656 22.5752 6.63659 22.4444 6.77381 22.3648L7.76281 21.7938L6.77381 21.2228C6.63659 21.1431 6.53656 21.0123 6.49568 20.859C6.4548 20.7057 6.47639 20.5424 6.55573 20.405C6.63508 20.2676 6.76568 20.1673 6.9189 20.126C7.07211 20.0848 7.23543 20.106 7.37301 20.1851L8.36174 20.7559V19.6141C8.36174 19.4551 8.42487 19.3027 8.53724 19.1904C8.64962 19.078 8.80203 19.0149 8.96094 19.0149C9.11986 19.0149 9.27227 19.078 9.38464 19.1904C9.49702 19.3027 9.56015 19.4551 9.56015 19.6141V20.7559L10.5489 20.1851C10.6865 20.106 10.8498 20.0848 11.003 20.126C11.1562 20.1673 11.2868 20.2676 11.3662 20.405C11.4455 20.5424 11.4671 20.7057 11.4262 20.859C11.3853 21.0123 11.2853 21.1431 11.1481 21.2228L10.1591 21.7938L11.1481 22.3648ZM17.6871 22.3648C17.7555 22.404 17.8154 22.4563 17.8634 22.5188C17.9115 22.5812 17.9468 22.6525 17.9673 22.7286C17.9877 22.8047 17.993 22.8841 17.9828 22.9622C17.9725 23.0403 17.947 23.1156 17.9076 23.1839C17.8682 23.2521 17.8157 23.3119 17.7531 23.3598C17.6906 23.4078 17.6192 23.4429 17.5431 23.4632C17.467 23.4835 17.3876 23.4886 17.3095 23.4781C17.2314 23.4677 17.1561 23.442 17.0879 23.4024L16.0992 22.8316V23.9734C16.0992 24.1324 16.0361 24.2848 15.9237 24.3971C15.8113 24.5095 15.6589 24.5726 15.5 24.5726C15.3411 24.5726 15.1887 24.5095 15.0763 24.3971C14.9639 24.2848 14.9008 24.1324 14.9008 23.9734V22.8316L13.9121 23.4024C13.7745 23.4815 13.6112 23.5027 13.458 23.4615C13.3047 23.4203 13.1741 23.3199 13.0948 23.1825C13.0155 23.0451 12.9939 22.8819 13.0347 22.7285C13.0756 22.5752 13.1757 22.4444 13.3129 22.3648L14.3019 21.7938L13.3129 21.2228C13.1757 21.1431 13.0756 21.0123 13.0347 20.859C12.9939 20.7057 13.0155 20.5424 13.0948 20.405C13.1741 20.2676 13.3047 20.1673 13.458 20.126C13.6112 20.0848 13.7745 20.106 13.9121 20.1851L14.9008 20.7559V19.6141C14.9008 19.4551 14.9639 19.3027 15.0763 19.1904C15.1887 19.078 15.3411 19.0149 15.5 19.0149C15.6589 19.0149 15.8113 19.078 15.9237 19.1904C16.0361 19.3027 16.0992 19.4551 16.0992 19.6141V20.7559L17.0879 20.1851C17.2255 20.106 17.3888 20.0848 17.5421 20.126C17.6953 20.1673 17.8259 20.2676 17.9052 20.405C17.9846 20.5424 18.0062 20.7057 17.9653 20.859C17.9244 21.0123 17.8244 21.1431 17.6871 21.2228L16.6981 21.7938L17.6871 22.3648ZM24.2262 22.3648C24.2945 22.404 24.3544 22.4563 24.4025 22.5188C24.4506 22.5812 24.4858 22.6525 24.5063 22.7286C24.5268 22.8047 24.5321 22.8841 24.5218 22.9622C24.5116 23.0403 24.486 23.1156 24.4466 23.1839C24.4072 23.2521 24.3547 23.3119 24.2922 23.3598C24.2297 23.4078 24.1583 23.4429 24.0821 23.4632C24.006 23.4835 23.9266 23.4886 23.8485 23.4781C23.7704 23.4677 23.6951 23.442 23.627 23.4024L22.6383 22.8316V23.9734C22.6383 24.1324 22.5751 24.2848 22.4628 24.3971C22.3504 24.5095 22.198 24.5726 22.0391 24.5726C21.8801 24.5726 21.7277 24.5095 21.6154 24.3971C21.503 24.2848 21.4399 24.1324 21.4399 23.9734V22.8316L20.4511 23.4024C20.3136 23.4815 20.1502 23.5027 19.997 23.4615C19.8438 23.4203 19.7132 23.3199 19.6339 23.1825C19.5545 23.0451 19.5329 22.8819 19.5738 22.7285C19.6147 22.5752 19.7147 22.4444 19.8519 22.3648L20.8409 21.7938L19.8519 21.2228C19.7147 21.1431 19.6147 21.0123 19.5738 20.859C19.5329 20.7057 19.5545 20.5424 19.6339 20.405C19.7132 20.2676 19.8438 20.1673 19.997 20.126C20.1502 20.0848 20.3136 20.106 20.4511 20.1851L21.4399 20.7559V19.6141C21.4399 19.4551 21.503 19.3027 21.6154 19.1904C21.7277 19.078 21.8801 19.0149 22.0391 19.0149C22.198 19.0149 22.3504 19.078 22.4628 19.1904C22.5751 19.3027 22.6383 19.4551 22.6383 19.6141V20.7559L23.627 20.1851C23.7646 20.106 23.9279 20.0848 24.0811 20.126C24.2343 20.1673 24.3649 20.2676 24.4443 20.405C24.5236 20.5424 24.5452 20.7057 24.5043 20.859C24.4634 21.0123 24.3634 21.1431 24.2262 21.2228L23.2372 21.7938L24.2262 22.3648Z" fill="black"/>
<path id="Vector_2" d="M9.56022 8.71566C9.56022 7.14031 10.186 5.62948 11.3 4.51554C12.4139 3.4016 13.9247 2.7758 15.5001 2.7758C17.0754 2.7758 18.5863 3.4016 19.7002 4.51554C20.8141 5.62948 21.4399 7.14031 21.4399 8.71566V12.9659H22.6383V8.71566C22.6383 6.82247 21.8863 5.00683 20.5476 3.66814C19.2089 2.32946 17.3933 1.57739 15.5001 1.57739C13.6069 1.57739 11.7912 2.32946 10.4526 3.66814C9.11388 5.00683 8.36182 6.82247 8.36182 8.71566V12.9659H9.56022V8.71566Z" fill="black"/>
</g>
</g>
</svg>
