<svg width="28" height="28" viewBox="0 0 28 28" fill="none" xmlns="http://www.w3.org/2000/svg">
<g id="payment-svgrepo-com 1">
<g id="SVGRepo_iconCarrier">
<g id="&#240;&#159;&#148;&#141;-Product-Icons">
<g id="ic_fluent_payment_24_filled">
<path id="&#240;&#159;&#142;&#168;-Color" d="M25.237 12.8692L25.2376 18.8104C25.2376 20.4558 23.9532 21.8011 22.3323 21.8985L22.1438 21.9042H5.85628C4.21093 21.9042 2.86557 20.6197 2.76817 18.9989L2.76253 18.8104L2.76172 12.8692H25.237ZM21.0346 16.8126H18.2221L18.1076 16.8203C17.6958 16.8762 17.3784 17.2292 17.3784 17.6564C17.3784 18.0835 17.6958 18.4366 18.1076 18.4924L18.2221 18.5001H21.0346L21.1491 18.4924C21.5609 18.4366 21.8784 18.0835 21.8784 17.6564C21.8784 17.2292 21.5609 16.8762 21.1491 16.8203L21.0346 16.8126ZM22.1438 6.14844C23.7892 6.14844 25.1346 7.43286 25.2319 9.05372L25.2376 9.24219L25.237 11.1817H2.76172L2.76253 9.24219C2.76253 7.59684 4.04695 6.25148 5.66782 6.15408L5.85628 6.14844H22.1438Z" fill="#212121"/>
</g>
</g>
</g>
</g>
</svg>
