<svg width="31" height="31" viewBox="0 0 31 31" fill="none" xmlns="http://www.w3.org/2000/svg">
<g id="person-svgrepo-com 2" clip-path="url(#clip0_171_913)">
<g id="Group">
<path id="Vector" d="M20.7036 21.5809C19.45 20.8157 19.0002 20.8928 19.0002 19.3641C19.0002 18.8291 19.0002 17.8349 19.0002 16.9178C19.6883 16.1537 19.9385 16.2488 20.5204 13.2489C21.697 13.2489 21.6208 11.7202 22.1757 10.3642C22.6281 9.25992 22.2492 8.81224 21.8681 8.62927C22.1796 4.6052 22.1796 1.83373 17.6122 0.973963C15.9566 -0.445075 13.4584 0.0366968 12.2745 0.273496C11.0917 0.510294 10.0246 0.273496 10.0246 0.273496L10.2278 2.18012C8.4957 4.25881 9.36189 7.03029 9.08301 8.65355C8.71961 8.85154 8.3918 9.308 8.82453 10.3642C9.37945 11.7202 9.30322 13.2489 10.4799 13.2489C11.0617 16.2488 11.3119 16.1537 12 16.9178C12 17.8349 12 18.8291 12 19.3641C12 20.8928 11.4805 20.9191 10.2967 21.5809C7.44249 23.1762 3.72316 24.1031 3.05678 29.0893C2.93472 30.0012 8.17105 30.9969 15.5001 31C22.8292 30.9969 28.0653 30.0012 27.9435 29.0893C27.2772 24.1031 23.5237 23.3013 20.7036 21.5809Z" fill="black"/>
</g>
</g>
<defs>
<clipPath id="clip0_171_913">
<rect width="31" height="31" fill="white"/>
</clipPath>
</defs>
</svg>
