<svg width="28" height="28" viewBox="0 0 28 28" fill="none" xmlns="http://www.w3.org/2000/svg">
<g id="platform-management-data-permissions-svgrepo-com 1" clip-path="url(#clip0_414_1158)">
<g id="SVGRepo_iconCarrier">
<path id="Vector" d="M12.4881 0.5C14.8737 2.30514 18.5303 3.47771 23.4597 4.01964V15.2729C23.4597 15.2729 22.6632 17.7299 20.6633 20.4993C19.3191 22.3449 16.5863 24.3564 12.4611 26.5357C8.44964 24.368 5.72264 22.2948 4.27814 20.3219C2.11236 17.3596 1.46436 15.2594 1.46436 15.2594V4.01964C6.5365 3.48929 10.2085 2.31671 12.4881 0.5ZM12.4765 24.665C15.0762 23.0662 17.6335 21.5561 19.0934 19.6141C20.5534 17.6739 21.2997 16.2796 21.6199 15.4541V5.60879C20.86 5.71486 14.3974 4.25107 12.463 2.61564C10.7273 4.2665 4.05057 5.68207 3.29071 5.58757V15.4541C3.73428 16.3702 4.25886 17.3808 5.767 19.3749C6.928 20.9139 9.64921 23.1549 12.4784 24.6669L12.4765 24.665ZM12.4611 6.51714C14.7811 6.51714 16.648 8.384 16.6075 10.6886C16.6075 12.6018 15.3559 14.1832 13.6182 14.702C13.5854 14.7116 13.5083 14.7213 13.4755 14.7309V19.5794C13.4755 20.0962 13.1091 20.5205 12.5806 20.5205C12.0638 20.5205 11.6896 20.1097 11.6896 19.5794V14.7965L11.5431 14.7772C10.5375 14.5529 9.65011 13.9652 9.05118 13.1269C8.45225 12.2886 8.18394 11.2586 8.29772 10.2346C8.4115 9.21062 8.89935 8.26469 9.6677 7.57827C10.436 6.89186 11.4308 6.5133 12.4611 6.51521V6.51714ZM12.4456 13.4407C13.9364 13.4407 15.1688 12.2084 15.1688 10.7176C15.1688 9.22679 13.9345 7.99443 12.4456 7.99443C10.9549 7.99443 9.72057 9.22871 9.72057 10.7176C9.72057 12.2084 10.9549 13.4407 12.4456 13.4407Z" fill="black"/>
</g>
</g>
<defs>
<clipPath id="clip0_414_1158">
<rect width="27" height="27" fill="white" transform="translate(0.5 0.5)"/>
</clipPath>
</defs>
</svg>
