<svg width="28" height="28" viewBox="0 0 28 28" fill="none" xmlns="http://www.w3.org/2000/svg">
<g id="privacy-tips-svgrepo-com 1">
<g id="SVGRepo_iconCarrier">
<path id="Vector" d="M24.5818 6.22189L14.4568 1.72189C14.313 1.65801 14.1574 1.625 14 1.625C13.8427 1.625 13.687 1.65801 13.5433 1.72189L3.41825 6.22189C3.21933 6.31027 3.05032 6.45445 2.9317 6.63696C2.81309 6.81947 2.74997 7.03247 2.75 7.25014V8.03764C2.75114 11.7486 3.74412 15.3919 5.62615 18.5903C7.50818 21.7886 10.2108 24.4258 13.4544 26.2289C13.6213 26.3215 13.8091 26.3701 14 26.3701C14.1909 26.3701 14.3787 26.3215 14.5456 26.2289C17.7892 24.4258 20.4918 21.7886 22.3739 18.5903C24.2559 15.3919 25.2489 11.7486 25.25 8.03764V7.25014C25.25 7.03247 25.1869 6.81947 25.0683 6.63696C24.9497 6.45445 24.7807 6.31027 24.5818 6.22189ZM23 8.03764C22.999 11.2403 22.1697 14.3883 20.5927 17.1759C19.0158 19.9634 16.7446 22.2957 14 23.9463C11.2554 22.2957 8.98425 19.9634 7.40725 17.1759C5.83026 14.3883 5.00099 11.2403 5 8.03764V7.98139L14 3.98089L23 7.98139V8.03764ZM12.875 11.7501H15.125V20.7501H12.875V11.7501ZM12.875 7.25014H15.125V9.50014H12.875V7.25014Z" fill="black"/>
</g>
</g>
</svg>
