<svg width="29" height="28" viewBox="0 0 29 28" fill="none" xmlns="http://www.w3.org/2000/svg">
<g id="person-svgrepo-com 1">
<path id="Vector" d="M14.3333 14.0002C17.555 14.0002 20.1667 11.3885 20.1667 8.16683C20.1667 4.94517 17.555 2.3335 14.3333 2.3335C11.1117 2.3335 8.5 4.94517 8.5 8.16683C8.5 11.3885 11.1117 14.0002 14.3333 14.0002Z" stroke="#808080" stroke-width="2"/>
<path id="Vector_2" d="M20.1669 16.3335H20.5772C22.3423 16.3335 23.8312 17.6479 24.0502 19.3994L24.5057 23.044C24.6798 24.4367 23.5939 25.6668 22.1904 25.6668H6.47674C5.07325 25.6668 3.98735 24.4367 4.16143 23.044L4.61701 19.3994C4.83595 17.6479 6.32486 16.3335 8.08999 16.3335H8.50025" stroke="#808080" stroke-width="2" stroke-linecap="round" stroke-linejoin="round"/>
</g>
</svg>
