<svg width="40" height="40" viewBox="0 0 40 40" fill="none" xmlns="http://www.w3.org/2000/svg">
<g id="tiktok-icon-white-1-logo-svgrepo-com 1" clip-path="url(#clip0_309_1061)">
<g id="SVGRepo_iconCarrier">
<g id="Group">
<path id="Vector" d="M7.91553 25.3418L8.01267 25.616C8.00023 25.5846 7.96469 25.4887 7.91553 25.3418ZM11.7597 19.1264C11.9303 17.6527 12.5096 16.8276 13.6013 15.9818C15.1633 14.8362 17.1144 15.4842 17.1144 15.4842V11.64C17.5887 11.6273 18.0633 11.6567 18.5324 11.7277V16.6748C18.5324 16.6748 16.5819 16.0268 15.0199 17.1729C13.9289 18.0182 13.3484 18.8439 13.1784 20.3176C13.173 21.1179 13.317 22.1639 13.9798 23.0684C13.8159 22.9807 13.6489 22.8808 13.4787 22.7687C12.0186 21.7457 11.7526 20.211 11.7597 19.1264ZM26.5887 4.53204C25.5142 3.30355 25.1079 2.06321 24.961 1.19189H26.3127C26.3127 1.19189 26.0432 3.47651 28.0073 5.72321L28.0346 5.75342C27.5052 5.40599 27.0197 4.99589 26.5887 4.53204ZM33.1002 8.01494V12.8626C33.1002 12.8626 31.3753 12.7921 30.0989 12.4533C28.3165 11.9794 27.171 11.2526 27.171 11.2526C27.171 11.2526 26.3796 10.7343 26.3156 10.6982V20.7086C26.3156 21.2659 26.1693 22.6579 25.7233 23.8189C25.1411 25.3376 24.2425 26.3345 24.0772 26.5383C24.0772 26.5383 22.9844 27.8858 21.0564 28.7933C19.3185 29.6119 17.7926 29.5911 17.3365 29.6119C17.3365 29.6119 14.6989 29.7208 12.3254 28.1115C11.8122 27.7568 11.3331 27.355 10.8944 26.9114L10.9062 26.9203C13.2803 28.5297 15.9173 28.4207 15.9173 28.4207C16.374 28.4 17.8998 28.4207 19.6371 27.6021C21.5634 26.6946 22.658 25.3471 22.658 25.3471C22.8215 25.1433 23.7242 24.1464 24.3041 22.6271C24.7489 21.4667 24.8964 20.0742 24.8964 19.5168V9.50761C24.9604 9.54433 25.7512 10.0626 25.7512 10.0626C25.7512 10.0626 26.8973 10.79 28.6796 11.2633C29.9567 11.6021 31.681 11.6726 31.681 11.6726V7.87396C32.2709 8.01197 32.7738 8.04929 33.1002 8.01494Z" fill="#EE1D52"/>
</g>
<path id="Vector_2" d="M31.6817 7.87396V11.6714C31.6817 11.6714 29.9574 11.6009 28.6804 11.2621C26.8981 10.7882 25.7519 10.0614 25.7519 10.0614C25.7519 10.0614 24.9611 9.54315 24.8972 9.50642V19.518C24.8972 20.0754 24.7509 21.4679 24.3048 22.6283C23.7226 24.1476 22.824 25.1445 22.6588 25.3483C22.6588 25.3483 21.5653 26.6958 19.6379 27.6033C17.9006 28.4219 16.3747 28.4011 15.918 28.4219C15.918 28.4219 13.281 28.5309 10.9069 26.9215L10.8951 26.9126C10.6444 26.6594 10.4085 26.392 10.1884 26.1118C9.43085 25.1481 8.96647 24.0084 8.84978 23.6832C8.84957 23.6819 8.84957 23.6805 8.84978 23.6791C8.66201 23.114 8.26752 21.757 8.32142 20.4426C8.41678 18.1236 9.19866 16.7003 9.40538 16.3437C9.95287 15.3713 10.665 14.5013 11.5099 13.7724C12.2556 13.1434 13.1007 12.6429 14.0107 12.2916C14.9945 11.879 16.0479 11.6578 17.1145 11.64V15.4842C17.1145 15.4842 15.1634 14.8386 13.602 15.9818C12.5104 16.8276 11.9311 17.6527 11.7605 19.1264C11.7534 20.211 12.0193 21.7457 13.4782 22.7693C13.6484 22.8818 13.8155 22.9817 13.9793 23.069C14.2342 23.4147 14.5444 23.7159 14.8975 23.9604C16.3226 24.9017 17.5167 24.9674 19.0438 24.3561C20.062 23.9474 20.8285 23.0263 21.1839 22.0058C21.4072 21.3684 21.4042 20.7269 21.4042 20.0635V1.19189H24.9582C25.1051 2.06321 25.5114 3.30355 26.5859 4.53204C27.0169 4.99589 27.5024 5.40599 28.0318 5.75342C28.1881 5.92224 28.9878 6.75683 30.0143 7.26919C30.5451 7.53404 31.1046 7.73696 31.6817 7.87396Z" fill="black"/>
<path id="Vector_3" d="M7.43506 22.5024V22.5054L7.52272 22.7548C7.51265 22.7257 7.48008 22.6375 7.43506 22.5024Z" fill="#69C9D0"/>
<path id="Vector_4" d="M14.0105 12.2912C13.1005 12.6426 12.2553 13.143 11.5097 13.772C10.6644 14.5026 9.95252 15.3744 9.40572 16.3486C9.199 16.704 8.41712 18.1286 8.32176 20.4476C8.26785 21.7619 8.66235 23.119 8.85011 23.6841C8.84991 23.6854 8.84991 23.6868 8.85011 23.6882C8.96858 24.0104 9.43119 25.1501 10.1888 26.1167C10.4088 26.397 10.6448 26.6643 10.8954 26.9176C10.0923 26.3622 9.37612 25.6906 8.77015 24.925C8.01908 23.9696 7.55587 22.8418 7.43504 22.5089C7.4349 22.5065 7.4349 22.5041 7.43504 22.5018V22.4976C7.24668 21.9331 6.851 20.5755 6.90609 19.2594C7.00145 16.9404 7.78333 15.517 7.99005 15.1604C8.5367 14.1861 9.24862 13.3142 10.094 12.5838C10.8395 11.9546 11.6847 11.4541 12.5948 11.103C13.1625 10.8674 13.7539 10.6937 14.3588 10.5847C15.2703 10.4256 16.2014 10.4118 17.1173 10.5438V11.6396C16.0496 11.6571 14.9952 11.8782 14.0105 12.2912Z" fill="#69C9D0"/>
<path id="Vector_5" d="M24.9612 1.19177H21.4072V20.064C21.4072 20.7274 21.4072 21.3671 21.1869 22.0062C20.8279 23.0262 20.0644 23.9473 19.0468 24.356C17.5191 24.9696 16.325 24.9015 14.9005 23.9603C14.5468 23.7168 14.2358 23.4166 13.98 23.0718C15.1937 23.7192 16.28 23.708 17.6258 23.1678C18.6428 22.7591 19.4075 21.838 19.7653 20.8174C19.9892 20.1801 19.9862 19.5386 19.9862 18.8758V0H24.8937C24.8937 0 24.8386 0.469125 24.9612 1.19177ZM31.6817 6.82363V7.87383C31.1056 7.73661 30.5471 7.5337 30.0173 7.26907C28.9908 6.7567 28.1911 5.92211 28.0348 5.75329C28.2162 5.87243 28.4045 5.98081 28.5987 6.07789C29.8467 6.70102 31.0758 6.88701 31.6817 6.82363Z" fill="#69C9D0"/>
<path id="Vector_6" d="M25.0835 36.9786C25.0832 37.1137 25.1032 37.2481 25.1428 37.3773C25.1447 37.3864 25.1475 37.3953 25.1511 37.4039C25.2457 37.7095 25.4357 37.9767 25.6932 38.1664C25.9508 38.3561 26.2623 38.4584 26.5821 38.4583V39.974C25.8441 39.974 25.3157 40.0001 24.509 39.5245C23.5944 38.9819 23.0791 37.9897 23.0791 36.9597C23.0791 35.897 23.656 34.8326 24.634 34.3197C25.3448 33.9477 25.8832 33.9453 26.5839 33.9453V35.4605C26.1863 35.4605 25.805 35.6184 25.5238 35.8996C25.2427 36.1807 25.0847 36.5621 25.0847 36.9597L25.0835 36.9786Z" fill="#69C9D0"/>
<path id="Vector_7" d="M28.0928 36.9786C28.0929 37.1137 28.0729 37.248 28.0336 37.3773C28.0336 37.3862 28.0283 37.395 28.0253 37.4039C27.9305 37.7094 27.7405 37.9765 27.483 38.1662C27.2255 38.3559 26.9141 38.4582 26.5942 38.4583V39.974C27.3317 39.974 27.8606 40.0001 28.6644 39.5245C29.5819 38.9819 30.0985 37.9897 30.0985 36.9597C30.0985 35.897 29.5215 34.8326 28.5436 34.3197C27.8328 33.9477 27.2944 33.9453 26.5942 33.9453V35.4605C26.9917 35.4606 27.3729 35.6187 27.6539 35.8998C27.935 36.1809 28.0928 36.5622 28.0928 36.9597V36.9786Z" fill="#EE1D52"/>
<path id="Vector_8" d="M3.38477 32.5703H8.93548L8.42253 34.0973H6.96777V39.9419H5.18308V34.0973H3.38477V32.5703ZM18.0953 32.5703V34.0973H19.8936V39.9419H21.6806V34.0973H23.133L23.646 32.5703H18.0953ZM10.1432 34.3106C10.3143 34.3105 10.4815 34.2596 10.6236 34.1645C10.7658 34.0694 10.8765 33.9342 10.9418 33.7762C11.0072 33.6181 11.0242 33.4442 10.9907 33.2765C10.9572 33.1087 10.8748 32.9547 10.7537 32.8339C10.6327 32.713 10.4786 32.6307 10.3108 32.5975C10.143 32.5642 9.96914 32.5815 9.81116 32.647C9.65318 32.7126 9.51819 32.8235 9.42327 32.9658C9.32834 33.1081 9.27773 33.2753 9.27785 33.4464C9.27785 33.56 9.30024 33.6724 9.34375 33.7774C9.38725 33.8823 9.45101 33.9776 9.53139 34.0579C9.61176 34.1381 9.70717 34.2018 9.81216 34.2451C9.91715 34.2885 10.0297 34.3107 10.1432 34.3106ZM9.27785 39.9419H11.03V34.9219H9.27785V39.9419ZM17.3335 34.2667H15.2841L13.5177 36.0331V32.5762H11.7769L11.7716 39.9419H13.529V38.0227L14.0757 37.5246L15.7816 39.9395H17.6605L15.1893 36.408L17.3335 34.2667ZM34.1421 36.4092L36.2845 34.2667H34.2356L32.4687 36.0331V32.5762H30.7285L30.7202 39.9419H32.4782V38.0227L33.0303 37.5246L34.7362 39.9395H36.6156L34.1421 36.4092ZM29.6368 36.9583C29.6368 38.6227 28.2691 39.9727 26.5822 39.9727C24.8952 39.9727 23.5275 38.6227 23.5275 36.9583C23.5275 35.2938 24.8952 33.9439 26.5822 33.9439C28.2691 33.9439 29.6368 35.2944 29.6368 36.9595V36.9583ZM28.0808 36.9583C28.0808 36.6619 27.9929 36.3722 27.8282 36.1257C27.6635 35.8793 27.4295 35.6872 27.1556 35.5738C26.8818 35.4603 26.5805 35.4307 26.2898 35.4885C25.9991 35.5463 25.7321 35.689 25.5225 35.8986C25.3129 36.1082 25.1702 36.3752 25.1124 36.6659C25.0545 36.9566 25.0842 37.2579 25.1976 37.5318C25.3111 37.8056 25.5031 38.0397 25.7496 38.2043C25.996 38.369 26.2858 38.4569 26.5822 38.4569C26.9794 38.4569 27.3604 38.2992 27.6414 38.0184C27.9224 37.7376 28.0804 37.3567 28.0808 36.9595V36.9583Z" fill="black"/>
</g>
</g>
<defs>
<clipPath id="clip0_309_1061">
<rect width="40" height="40" fill="white"/>
</clipPath>
</defs>
</svg>
