<svg width="40" height="40" viewBox="0 0 40 40" fill="none" xmlns="http://www.w3.org/2000/svg">
<g id="twitter-3-logo-svgrepo-com 1" clip-path="url(#clip0_309_1041)">
<g id="SVGRepo_iconCarrier">
<path id="Vector" d="M20 40C31.0457 40 40 31.0457 40 20C40 8.9543 31.0457 0 20 0C8.9543 0 0 8.9543 0 20C0 31.0457 8.9543 40 20 40Z" fill="#2DAAE1"/>
<path id="Vector_2" d="M32.8237 12.0446C31.8803 12.4632 30.8671 12.7462 29.8017 12.8734C30.889 12.2223 31.7219 11.1906 32.1152 9.96265C31.0824 10.5761 29.9521 11.0079 28.7734 11.2395C27.8141 10.217 26.4462 9.57861 24.9329 9.57861C22.0281 9.57861 19.6723 11.9335 19.6723 14.8399C19.6723 15.2518 19.7187 15.6535 19.8078 16.0393C15.4351 15.8195 11.5583 13.7249 8.96343 10.5421C8.51033 11.3195 8.25097 12.2232 8.25097 13.1875C8.25097 15.0126 9.17994 16.623 10.5915 17.5663C9.75587 17.5404 8.9386 17.3148 8.20798 16.9085V16.9749C8.20798 19.5244 10.0213 21.6501 12.4284 22.1336C11.9862 22.2547 11.5221 22.318 11.0421 22.318C10.7027 22.318 10.3733 22.2859 10.0517 22.2254C10.7212 24.315 12.6643 25.836 14.9659 25.879C13.1653 27.2905 10.8963 28.132 8.43202 28.132C8.00758 28.132 7.58809 28.1066 7.17627 28.057C9.50503 29.5502 12.2701 30.4219 15.2414 30.4219C24.9185 30.4219 30.211 22.4048 30.211 15.4523C30.211 15.224 30.206 14.9975 30.195 14.7718C31.2262 14.0259 32.1163 13.1024 32.8237 12.0446Z" fill="white"/>
</g>
</g>
<defs>
<clipPath id="clip0_309_1041">
<rect width="40" height="40" fill="white"/>
</clipPath>
</defs>
</svg>
